<svg width="142" height="185" viewBox="0 0 142 185" fill="none" xmlns="http://www.w3.org/2000/svg">
<path fill-rule="evenodd" clip-rule="evenodd" d="M38.2369 97.649C39.5425 93.8837 40.5888 92.3271 42.4632 91.1334C44.2163 90.0168 46.7128 89.162 50.2935 88.6798C54.0101 88.3375 54.2678 86.4462 55.4339 83.4673C55.7763 82.5711 57.1245 82.4345 57.6443 83.1425C57.7321 83.062 57.8229 82.9892 57.9159 82.9242C57.8733 82.4801 58.614 81.2772 58.6265 80.8567C58.7576 76.468 60.3687 74.3892 64.0124 73.863C64.8048 73.7485 70.0981 74.0719 70.8398 74.3425C74.0822 75.5256 77.112 78.6935 76.3291 82.1508C77.2603 83.592 78.2121 84.5027 79.7829 85.0699C83.3205 85.812 86.8619 86.5038 90.4093 87.1379C97.3192 88.7993 103.582 93.0251 107.63 98.7765C108.004 99.3074 108.068 99.9922 107.66 100.493C107.847 101.738 109.217 104.831 107.883 105.566C109.563 110.703 113.578 120.695 113.365 123.439C112.47 134.968 110.007 149.869 98.0865 155.324C97.5937 155.735 97.4882 156.225 97.2366 156.875C96.5654 158.933 94.6231 160.285 92.6401 160.001C82.805 159.424 73.3929 157.459 63.5799 156.606C59.2524 156.23 53.9934 156.453 50.1976 156.578C46.4018 156.703 42.6359 156.016 39.1154 154.626C38.7724 155.079 38.1345 155.307 37.5214 155.12C33.8397 154.075 31.0001 151.531 28.5683 148.804C27.8812 147.277 25.0732 142.86 26.4407 141.512C25.6943 136.642 26.1689 131.513 28.5511 127.126C28.3331 126.269 28.9277 125.394 28.7626 124.514C28.6431 123.877 28.2287 123.584 28.0596 122.949C27.8216 122.056 28.2512 120.918 28.6701 120.06C28.8481 119.63 28.4825 119.121 28.4067 118.662C28.0463 116.493 29.2506 116.779 30.2449 115.429C30.2321 115.423 30.0856 114.39 30.0863 114.396C30.0103 113.66 30.4227 112.76 30.7658 112.179C30.9977 111.786 31.4443 111.565 31.8637 111.646C31.5543 110.169 31.1126 108.925 30.6456 107.487C29.819 104.954 28.7116 102.503 27.4194 100.165C26.8902 99.2084 27.7849 98.2217 28.7653 98.2388C31.9385 98.2944 35.0977 98.0939 38.2369 97.649Z" fill="white"/>
<path fill-rule="evenodd" clip-rule="evenodd" d="M45.9502 116.926C47.2529 116.534 48.6346 116.371 50.0097 116.376C49.2844 116.188 48.5565 116.004 47.8179 115.88C47.3025 115.794 46.8209 115.759 46.399 116.12C46.1176 116.361 45.9683 116.688 45.7722 116.983C45.8301 116.963 45.8902 116.944 45.9502 116.926ZM32.7711 111.211C34.8306 111.483 36.8611 112.141 38.6598 113.181C39.3957 113.607 40.0466 114.189 40.1796 115.07C40.2465 115.52 40.1845 115.974 40.0937 116.416C40.0252 116.75 39.98 117.181 39.6672 117.386C39.6139 117.42 39.5579 117.446 39.5003 117.463C40.1652 117.829 40.7921 118.256 41.345 118.687C41.8502 119.082 42.355 119.668 42.5519 120.299C42.578 120.232 42.6038 120.168 42.6293 120.109C43.1493 118.905 43.8781 117.943 44.9519 117.344C44.7782 117.249 44.6694 117.047 44.7489 116.788C45.08 115.705 46.1786 114.83 47.3261 114.991C48.5828 115.168 49.9019 115.736 50.9969 116.408C51.4138 116.432 51.8287 116.472 52.2377 116.523C52.3083 116.531 52.2971 116.626 52.2292 116.629C51.8927 116.644 51.5558 116.664 51.2184 116.691C50.4165 116.754 49.6142 116.85 48.826 116.987C47.8803 117.151 46.9028 117.313 46.0032 117.661C44.2586 118.336 43.0477 120.373 43.1115 122.235C43.1224 122.541 43.1658 123.465 43.5945 123.405C43.9567 123.354 44.1581 122.625 44.3046 122.361C44.6967 121.659 45.3351 121.232 46.0809 120.969C46.9568 120.658 47.8821 120.475 48.7823 120.248C49.2921 120.119 49.802 119.99 50.313 119.861C50.8358 119.729 51.3389 119.528 51.8708 119.693C52.1922 119.794 52.1983 120.186 51.9966 120.394C51.6896 120.712 51.2663 120.778 50.8523 120.885C50.3059 121.027 49.7606 121.168 49.2152 121.31C48.3722 121.528 47.4938 121.698 46.6661 121.982L46.6865 122.04C46.7531 122.028 46.8243 122.099 46.8051 122.177C46.6258 122.904 46.3903 123.741 46.5155 124.494C46.6141 125.09 47.0762 125.779 47.7584 125.662C47.6612 125.558 47.6358 125.389 47.7188 125.243C48.0293 124.7 51.6771 122.753 51.9192 123.605C51.9271 123.635 51.8935 123.654 51.8686 123.648C51.6096 123.572 51.1319 123.984 50.9094 124.109C50.5883 124.29 50.263 124.465 49.9447 124.651C49.5964 124.854 49.2552 125.069 48.9214 125.293C48.6592 125.469 48.4568 125.657 48.166 125.734C48.3084 125.816 48.4154 125.956 48.452 126.128C48.5444 126.574 48.7609 126.964 49.173 127.191C49.6051 127.427 50.1206 127.342 50.5889 127.429C51.227 127.546 51.7634 127.896 52.197 128.37C53.1071 129.367 53.4701 131.023 54.8118 131.567C55.6133 131.892 56.539 131.804 57.3811 131.754C58.3213 131.698 59.2354 131.668 60.1608 131.88C61.0467 132.084 61.8691 132.462 62.6575 132.906C63.3965 133.322 64.2127 133.791 64.8509 134.374C65.0262 133.954 65.2021 133.539 65.3451 133.108C65.6825 132.087 65.9053 131.038 66.0251 129.971C66.1382 128.955 66.164 127.927 66.1584 126.906C66.1559 126.396 66.1283 125.887 66.1259 125.377C66.125 125.249 66.1131 125.11 66.107 124.972C64.9491 124.158 63.7161 123.506 62.474 122.838C62.4706 122.836 62.4673 122.834 62.464 122.832C62.4255 122.811 62.3881 122.791 62.3496 122.771C62.3509 122.768 62.3523 122.766 62.3547 122.764C62.2149 122.662 62.1219 122.534 62.0712 122.395C60.3148 121.017 58.8992 119.216 57.9009 117.167C57.4824 116.309 57.0847 115.421 56.5087 114.652C55.8954 113.831 55.1304 113.311 54.1572 112.994C53.0197 112.623 51.8377 112.36 50.6569 112.169C50.012 112.065 49.2931 111.927 48.5855 111.873C48.0925 111.836 47.6067 111.839 47.1542 111.925C46.4837 112.052 46.0602 112.518 45.6077 112.988C45.1752 113.438 44.7448 113.89 44.3368 114.364C43.9504 114.812 43.5819 115.278 43.2549 115.772C43.0587 116.067 42.8744 116.373 42.7143 116.691C42.6581 116.803 42.5859 116.93 42.5476 117.049C42.5092 117.168 42.5513 117.301 42.4144 117.29C42.9784 117.343 42.8998 118.243 42.3413 118.165C40.1547 117.859 43.6481 113.836 44.1562 113.277C44.8759 112.485 45.6368 111.438 46.7111 111.13C46.7264 111.126 46.7428 111.121 46.758 111.118C46.4778 110.807 46.2661 110.444 46.0651 110.076C45.8581 109.697 45.6099 109.262 45.5667 108.829C45.5397 108.554 45.891 108.426 46.0326 108.677C46.2383 109.043 46.3157 109.491 46.4593 109.887C46.6059 110.288 46.7931 110.671 46.9326 111.075C47.3546 110.982 47.8041 110.96 48.2585 110.977C47.7495 110.16 46.8937 108.592 46.7916 108.391C46.3226 107.462 45.8821 106.508 45.4645 105.555C45.0132 104.522 44.6414 103.454 44.2138 102.412C43.9712 101.821 43.7267 101.225 43.4507 100.648C43.3554 100.45 43.2521 100.252 43.1314 100.069C43.1079 100.033 43.0771 100.002 43.0489 99.9671C43.0151 99.9449 42.9804 99.9203 42.9608 99.9074C42.7847 99.7866 42.7394 99.5356 42.6221 99.3691C42.4348 99.1009 42.1931 99.0516 41.8808 99.0227C41.2154 98.962 40.5447 98.934 39.8783 98.8984C38.8985 98.8465 37.919 98.8062 36.9385 98.7783C36.6418 98.7703 36.3462 98.7624 36.0493 98.7567C34.6224 98.726 33.1945 98.7214 31.768 98.7423C30.5059 98.7603 29.2377 98.8535 27.9766 98.8453C29.3482 103.005 30.9105 107.107 32.7327 111.091C32.7511 111.131 32.7641 111.171 32.7711 111.211ZM41.3491 122.336C41.6127 122.483 41.8659 122.66 42.099 122.858C42.0803 122.578 42.0937 122.286 42.1288 121.994C41.9069 122.196 41.6356 122.3 41.3491 122.336ZM30.2236 114.47C30.2428 114.474 30.2602 114.486 30.2678 114.506C30.5833 115.316 30.3544 116.174 29.6866 116.735C29.3369 117.027 28.6017 117.329 28.5823 117.855C28.5674 118.279 29.0005 118.672 29.1695 119.037C29.3268 119.377 29.3663 119.74 29.1906 120.081C28.9658 120.517 28.4255 120.655 28.2093 121.084C27.9356 121.629 28.2513 122.338 28.4716 122.849C28.6767 123.323 28.9526 123.802 29.1212 124.299C30.4535 125.13 31.6087 126.332 32.5881 127.537C33.6605 128.855 34.5488 130.376 36.4121 130.49C36.5983 130.502 36.7319 130.611 36.8053 130.753C37.3212 130.819 37.8394 130.871 38.357 130.916C39.2669 130.994 40.1779 131.058 41.0893 131.103C41.1709 130.889 41.1483 130.587 41.1668 130.402C41.2265 129.806 41.2805 129.21 41.3539 128.614C41.3742 128.449 41.3946 128.282 41.4149 128.117C41.0397 128.681 40.3792 128.897 39.6548 128.798C38.4901 128.635 37.3284 128.348 36.1836 128.082C35.5805 127.943 34.9797 127.791 34.3806 127.633C33.8881 127.504 33.1814 127.469 32.8647 127.042C32.7901 126.942 32.7994 126.771 32.9333 126.719C33.2927 126.577 33.5029 126.689 33.8769 126.793C34.3326 126.92 34.79 127.043 35.249 127.16C36.1296 127.387 37.0133 127.603 37.9007 127.802C38.4059 127.915 38.9124 128.027 39.42 128.125C39.8633 128.209 40.3622 128.314 40.7498 128.008C41.5313 127.388 41.2161 126.219 40.8119 125.497C40.8039 125.482 40.8049 125.47 40.8092 125.459C40.384 125.322 39.9613 125.169 39.5368 125.051C38.7205 124.824 37.8964 124.623 37.07 124.436C35.372 124.052 33.6559 123.75 31.9423 123.448C31.5179 123.372 31.5676 122.7 31.9967 122.775C34.4593 123.203 36.9352 123.619 39.3444 124.294C39.9484 124.462 40.5468 124.646 41.1401 124.846C41.4207 124.94 41.7186 125.075 42.0183 125.103C42.0365 125.105 42.0549 125.106 42.0731 125.106C42.662 125.136 42.7882 124.641 42.4992 124.197C42.4634 124.143 42.4265 124.088 42.3883 124.036C41.8729 123.311 41.199 122.801 40.5047 122.273C39.6935 122.095 38.8958 121.781 38.1075 121.534C36.1616 120.923 34.2156 120.311 32.2684 119.701C31.8868 119.581 32.1003 118.998 32.4822 119.117C33.9603 119.58 35.4384 120.042 36.9166 120.504L39.0798 121.181C39.5121 121.315 40.0459 121.559 40.5579 121.673C40.8104 121.728 41.0576 121.753 41.2854 121.719C42.0212 121.607 42.1306 120.71 41.8625 120.15C41.5621 119.521 40.9332 119.092 40.3756 118.704C39.4094 118.031 38.3648 117.52 37.3504 116.945C37.1667 116.889 36.9829 116.833 36.7992 116.777C35.7304 116.45 34.4966 116.232 33.5077 115.711C33.2114 115.556 33.4183 115.087 33.721 115.119C34.5147 115.2 35.3233 115.55 36.0866 115.78C36.9125 116.03 37.7396 116.279 38.5656 116.528C38.6485 116.553 39.1352 116.753 39.2134 116.724C39.2631 116.705 39.2937 116.54 39.3185 116.432C39.3991 116.077 39.4672 115.702 39.4405 115.337C39.3828 114.518 38.7372 114.083 38.0779 113.717C36.61 112.903 34.974 112.335 33.3249 112.028C32.9449 111.957 32.5637 111.901 32.1791 111.857C31.7275 111.807 31.3609 111.697 31.0956 112.123C30.6784 112.795 30.407 113.68 30.2236 114.47ZM30.2822 140.054C30.707 138.936 30.7157 137.705 31.0378 136.555C31.204 135.962 31.4127 135.377 31.6353 134.803C31.815 134.339 32.0915 133.852 32.1583 133.358C32.1626 133.325 32.125 133.303 32.0969 133.316C31.6067 133.546 31.2001 134.095 30.8962 134.527C30.5324 135.045 30.2421 135.594 29.9967 136.176C29.5076 137.336 29.0689 138.747 29.478 139.989C29.5997 140.359 30.1232 140.473 30.2822 140.054ZM41.7727 125.712C41.4943 125.662 41.218 125.586 40.9425 125.5C41.2315 125.831 41.4914 126.222 41.6194 126.642C41.6697 126.331 41.727 126.022 41.7942 125.715C41.7874 125.714 41.7794 125.714 41.7727 125.712ZM42.5386 149.776C43.0613 149.471 43.4608 149.019 43.9149 148.628C44.3614 148.244 43.7684 147.548 43.3217 147.932C42.9343 148.266 42.5868 148.693 42.1418 148.952C41.9275 149.077 41.813 149.324 41.9275 149.562C42.0288 149.772 42.325 149.9 42.5386 149.776ZM46.3699 136.761C45.4982 136.298 44.6442 135.802 43.7216 135.445C43.1702 135.231 42.8599 136.091 43.4079 136.303C44.2576 136.632 45.043 137.083 45.8457 137.509C46.3611 137.783 46.8887 137.036 46.3699 136.761ZM55.9311 137.261C56.196 136.735 55.3318 136.429 55.0708 136.947C54.7702 137.544 54.4344 138.122 54.1338 138.719C53.8691 139.244 54.7331 139.55 54.9941 139.032C55.2946 138.435 55.6306 137.857 55.9311 137.261ZM64.4674 148.88C64.5986 149.088 64.8354 149.214 65.0784 149.094C65.2819 148.994 65.4254 148.695 65.2925 148.484C64.9044 147.871 64.51 147.264 64.042 146.707C63.6626 146.256 62.9655 146.848 63.3446 147.299C63.7626 147.796 64.1207 148.332 64.4674 148.88ZM70.7462 88.0707C70.3042 88.3222 69.9092 88.6391 69.5225 88.9669C69.0729 89.3479 69.6662 90.0437 70.1158 89.6627C70.4416 89.3865 70.7704 89.1059 71.1431 88.894C71.3584 88.7715 71.471 88.5203 71.3572 88.2845C71.2552 88.0733 70.961 87.9486 70.7462 88.0707ZM55.8621 101.61C56.0606 102.102 56.2363 102.583 56.2062 103.121C56.1732 103.708 57.0856 103.782 57.1186 103.195C57.1581 102.49 56.9474 101.859 56.6873 101.214C56.4672 100.668 55.643 101.066 55.8621 101.61ZM51.7888 89.4384C51.3247 89.0724 50.8044 89.8243 51.2645 90.1871C51.6375 90.481 52.0105 90.7752 52.3835 91.0693C52.8475 91.4351 53.3677 90.6833 52.9078 90.3206C52.5348 90.0265 52.1618 89.7324 51.7888 89.4384ZM71.9226 111.772C71.9595 112.358 72.8587 112.181 72.8222 111.602C72.7656 110.706 72.6797 109.819 72.5087 108.937C72.3968 108.36 71.4973 108.53 71.6093 109.108C71.7802 109.99 71.8661 110.877 71.9226 111.772ZM74.2777 122.458C74.866 122.494 74.9398 121.583 74.3514 121.548C73.8189 121.516 73.2851 121.614 72.7621 121.7C72.1802 121.796 72.3524 122.693 72.9336 122.597C73.3758 122.524 73.8275 122.432 74.2777 122.458ZM73.758 143.558C73.9518 143.673 74.1517 143.778 74.3481 143.887C74.7415 144.107 75.1346 144.326 75.5276 144.546C76.3463 145.004 77.1645 145.464 77.9817 145.924C79.6177 146.847 81.2691 147.743 82.9099 148.657C84.5831 149.589 86.2508 150.532 87.9161 151.478C88.7007 151.924 89.4926 152.356 90.2825 152.792C90.9579 153.165 91.7798 153.788 92.5451 153.902C92.5845 153.908 92.6018 153.859 92.5812 153.832C92.3172 153.478 91.869 153.249 91.5042 153.004C91.1316 152.753 90.7507 152.515 90.3718 152.274C89.582 151.771 88.7909 151.271 87.9918 150.783C86.3935 149.807 84.7914 148.836 83.189 147.867C81.5546 146.878 79.923 145.884 78.2713 144.925C77.4936 144.473 76.7151 144.022 75.936 143.572C75.5139 143.329 75.0916 143.086 74.6692 142.843C74.4868 142.738 74.3068 142.626 74.1194 142.53C73.8704 142.403 73.6728 142.409 73.4123 142.322C72.9875 142.18 72.7553 142.715 73.0687 142.981C73.3267 143.2 73.4572 143.381 73.758 143.558ZM79.094 153.385C79.2061 153.166 79.0323 152.874 78.8207 152.8C78.5671 152.711 78.3467 152.851 78.2336 153.072C77.9343 153.659 77.5329 154.187 77.0362 154.62C76.5922 155.007 77.185 155.703 77.6293 155.316C78.2518 154.773 78.7205 154.117 79.094 153.385ZM84.7587 139.137C85.2083 138.756 84.615 138.06 84.1656 138.441L82.8875 139.525C82.4379 139.907 83.0312 140.602 83.4806 140.221L84.7587 139.137ZM97.0474 138.196C97.8775 138.514 98.8506 138.823 99.3717 139.593C99.3971 139.631 99.4484 139.59 99.4342 139.553C98.8164 137.958 96.7318 137.247 95.3018 136.591C94.2904 136.126 93.2466 135.724 92.1911 135.355C92.3982 134.136 92.2075 132.797 92.203 131.568C92.1983 130.255 92.2144 128.94 92.2742 127.629C92.3351 126.291 92.4324 124.947 92.5845 123.616C92.7359 122.29 93.0153 120.991 93.1983 119.672C93.216 119.544 93.0377 119.524 92.9905 119.627C92.4432 120.82 92.1416 122.167 91.8908 123.451C91.6326 124.775 91.4749 126.103 91.3853 127.448C91.2933 128.831 91.2622 130.215 91.2613 131.601C91.2608 132.258 91.2688 132.914 91.2734 133.571C91.2769 134.073 91.2572 134.568 91.3199 135.058C90.6824 134.846 90.0428 134.643 89.4048 134.444C87.3705 133.81 85.3248 133.208 83.3022 132.537C82.3094 132.207 81.335 131.83 80.348 131.485C79.4186 131.16 78.4408 130.778 77.475 130.589C77.1303 130.521 77.0476 130.992 77.2648 131.172C78.0122 131.791 79.0331 132.263 79.9231 132.647C80.8163 133.033 81.7529 133.335 82.6755 133.642C84.5997 134.283 86.5495 134.837 88.4951 135.407C90.4379 135.977 92.3848 136.544 94.2977 137.208C95.2189 137.527 96.1368 137.848 97.0474 138.196ZM103.678 114.221C104.162 114.56 104.685 113.81 104.202 113.473C103.571 113.031 102.889 112.683 102.2 112.341C101.672 112.079 101.366 112.94 101.887 113.199C102.506 113.506 103.111 113.825 103.678 114.221ZM102.78 148.188C103.265 148.524 103.788 147.775 103.304 147.44C102.624 146.97 101.865 146.631 101.155 146.21C100.65 145.911 100.124 146.659 100.631 146.959C101.341 147.38 102.1 147.718 102.78 148.188ZM105.161 129.059C104.631 129.486 103.956 129.652 103.316 129.847C102.759 130.017 102.924 130.916 103.488 130.744C104.285 130.501 105.094 130.286 105.755 129.755C106.214 129.385 105.62 128.69 105.161 129.059ZM101.823 102.547C101.265 102.715 101.431 103.614 101.995 103.445C102.621 103.256 103.262 103.126 103.888 102.938C104.446 102.77 104.28 101.871 103.716 102.041C103.09 102.229 102.449 102.359 101.823 102.547ZM93.0494 91.4136C92.4819 91.2703 92.1659 92.1277 92.7357 92.2718C93.4427 92.4505 94.1371 92.6489 94.7957 92.9663C95.3275 93.2226 95.6344 92.3612 95.1094 92.1082C94.4507 91.7908 93.7563 91.5923 93.0494 91.4136ZM87.8319 116.369C88.3804 116.153 87.9811 115.331 87.4351 115.546C86.8597 115.772 86.2693 115.936 85.655 116.015C85.0701 116.09 85.244 116.988 85.8266 116.912C86.5179 116.823 87.1849 116.624 87.8319 116.369ZM85.9821 101.924C85.4266 101.723 85.1153 102.582 85.6684 102.782C86.6416 103.135 87.6547 103.359 88.6376 103.682C89.1978 103.867 89.5106 103.008 88.9513 102.824C87.9684 102.501 86.9551 102.277 85.9821 101.924ZM73.6173 96.437C73.0311 96.4969 73.2062 97.3939 73.7887 97.3345C74.4089 97.2712 75.0283 97.3195 75.6478 97.3693C76.2359 97.4167 76.3086 96.5064 75.7215 96.4591C75.0177 96.4024 74.3214 96.3652 73.6173 96.437ZM31.7292 97.8321C33.2315 97.8106 34.7338 97.8177 36.2361 97.8534C36.3061 97.8555 36.3748 97.8566 36.4447 97.8588C36.4539 97.8436 36.4654 97.8295 36.477 97.8144C37.023 97.1394 37.4401 96.454 37.8169 95.6713C38.1769 94.9262 38.5297 94.1566 39.0444 93.4997C39.6314 92.7512 40.3876 92.1896 41.2048 91.716C41.6487 92.0689 42.0544 92.4728 42.4213 92.8958C42.8075 93.3409 43.505 92.7496 43.1187 92.3044C42.7927 91.9284 42.4406 91.5771 42.0645 91.2549C42.5486 91.0126 43.0406 90.7879 43.521 90.5636C45.3216 89.7234 47.1571 88.9603 49.023 88.2777C49.8903 87.9595 50.7644 87.6856 51.6445 87.4075C52.1183 87.2582 52.5904 87.0546 53.0665 86.8757C53.0596 86.5498 53.1858 86.1958 53.4517 86.0031C53.648 85.8621 53.7953 85.8156 54.0232 85.7231C54.0736 85.7099 54.1041 85.7021 54.1183 85.6975C54.1078 85.6989 54.0774 85.7056 54.0272 85.7176C53.9064 85.7618 53.8986 85.745 54.0035 85.6687C54.0241 85.485 54.4196 85.1253 54.5181 84.942C54.8606 84.3134 55.0066 83.6312 55.4824 83.0719C56.1384 82.3015 57.1535 82.0723 58.0539 82.4245C58.2293 81.4481 58.3376 80.4227 58.7805 79.5743C58.7927 79.5514 58.8266 79.5437 58.8394 79.5711C59.1738 80.2614 59.1475 80.9979 59.1156 81.7603C59.0864 82.4761 59 83.2032 58.849 83.9045C58.9046 83.9548 58.9616 84.003 59.0209 84.0501C59.2995 84.2674 59.6045 84.4421 59.9287 84.5796C60.5459 84.8402 61.2035 84.985 61.8659 85.0707C63.576 85.2916 65.3591 85.2619 67.071 85.1051C68.8026 84.9464 71.4564 84.7123 73.0448 83.9831C74.093 83.5023 75.0735 82.8909 76.065 82.3024C75.8134 81.1825 75.8218 80.0013 76.2387 79.1062C76.2887 78.9992 76.4638 78.9927 76.4863 79.1262C76.6294 80.0243 76.6204 80.9146 76.8351 81.8081C76.8387 81.821 76.8421 81.8351 76.8457 81.8479C76.9395 81.7949 77.0333 81.7429 77.127 81.6909C77.3433 81.5721 77.6146 81.6961 77.7221 81.8994C79.4414 85.155 82.5466 85.585 85.7777 86.4034C89.3138 87.2989 92.8641 88.2437 96.2151 89.7073C99.4198 91.1076 102.437 93.0126 104.733 95.6792C105.253 96.2829 105.733 96.9202 106.181 97.5813C105.694 97.6028 105.208 97.6585 104.723 97.7683C104.15 97.8983 104.319 98.7963 104.895 98.6657C105.517 98.5246 106.139 98.4802 106.763 98.4835C108.271 100.935 109.381 103.666 110.315 106.341C112.107 111.471 113.108 116.86 113.33 122.282C112.987 122.037 112.636 121.802 112.275 121.581C111.774 121.273 111.249 122.021 111.751 122.33C112.308 122.672 112.847 123.042 113.365 123.439C113.414 125.809 113.315 128.181 113.068 130.538C112.478 136.158 111.247 141.891 109.089 147.123C108.03 149.691 106.698 152.215 104.849 154.308C104.012 155.256 103.081 156.097 102.009 156.774C101.49 157.103 100.945 157.39 100.376 157.623C99.6434 157.926 98.7167 157.97 98.0687 158.429C97.8556 158.58 97.6837 158.789 97.5472 159.028C97.5762 159.507 97.5457 159.982 97.3774 160.445C97.3243 160.59 97.2028 160.701 97.0601 160.748C97.0545 160.789 97.0512 160.829 97.0481 160.867C97.0466 160.886 97.0189 160.888 97.0169 160.87C97.0141 160.834 97.0113 160.798 97.0085 160.761C96.9628 160.772 96.9155 160.775 96.8676 160.772C95.1344 160.638 93.4031 160.455 91.6729 160.256C91.8402 159.857 92.0185 159.462 92.1912 159.064C92.4257 158.522 91.5633 158.214 91.3309 158.75C91.1288 159.216 90.9197 159.678 90.729 160.146C88.8757 159.927 87.024 159.694 85.174 159.482C81.2391 159.032 77.2983 158.669 73.3586 158.267C67.2403 157.641 61.0885 156.876 54.9293 156.638C54.7534 156.172 54.5513 155.713 54.3619 155.252C54.1385 154.707 53.3142 155.105 53.5368 155.647C53.6685 155.968 53.806 156.285 53.9352 156.605C52.6869 156.569 51.438 156.554 50.1893 156.569C48.0586 156.596 45.9358 156.778 43.8056 156.826C41.6399 156.875 39.542 156.665 37.4399 156.138C37.0618 156.044 36.8547 155.794 36.7844 155.5C36.7811 155.499 36.7789 155.496 36.777 155.493C36.6779 155.356 36.5836 155.242 36.4852 155.141C36.3651 155.049 36.2338 154.969 36.078 154.894C35.7872 154.756 35.4803 154.661 35.1669 154.589C34.8221 154.509 34.4689 154.475 34.1234 154.404C33.8323 154.343 33.5492 154.263 33.2674 154.172C32.7605 154.007 32.2831 153.807 31.8121 153.555C31.4017 153.335 31.0389 153.038 30.6996 152.718C29.9934 152.11 29.3999 151.359 28.8905 150.587C28.5941 150.135 28.3184 149.67 28.0726 149.189C27.6442 148.354 27.2912 147.495 26.9343 146.629C26.8002 146.37 26.6801 146.107 26.5726 145.839C27.4215 145.662 28.2748 145.531 29.1551 145.588C29.7435 145.626 29.8171 144.716 29.2288 144.678C28.2193 144.612 27.2466 144.77 26.2764 144.973C26.2401 144.847 26.2058 144.72 26.175 144.592C26.0831 144.323 26.0113 144.048 25.9556 143.77C25.9201 143.644 25.8843 143.517 25.8486 143.391C25.7804 142.957 25.7123 142.522 25.643 142.087C25.4919 141.387 25.385 140.681 25.3219 139.969C25.259 139.499 25.2191 139.028 25.2048 138.552C25.1375 137.398 25.0997 136.249 25.184 135.094C25.2552 134.384 25.3583 133.678 25.4931 132.978C25.5651 132.5 25.6596 132.027 25.7733 131.558C25.9286 130.861 26.0821 130.17 26.3016 129.487C26.4618 129.026 26.622 128.565 26.7822 128.103C27.1662 127.146 27.6034 126.213 28.0938 125.305C28.1213 125.248 28.2471 125.127 28.3167 125.132C28.3692 125.135 28.4385 125.189 28.4094 125.251C28.4065 125.256 28.4038 125.263 28.4009 125.268C28.4292 125.217 28.4564 125.164 28.4847 125.112C28.5093 125.064 28.5973 124.97 28.6588 124.976C28.6622 124.977 28.6657 124.977 28.6701 124.978C28.655 124.966 28.6414 124.95 28.6279 124.932C28.2576 124.415 28.0434 123.757 27.7955 123.174C27.59 122.692 27.4002 122.186 27.3763 121.659C27.3554 121.196 27.4705 120.75 27.7891 120.403C28.1518 120.007 28.7861 119.859 28.4921 119.222C28.1582 118.496 27.6332 117.848 28.2685 117.105C28.5919 116.727 29.0706 116.544 29.4411 116.222C29.8673 115.85 30.0982 115.325 30.1325 114.772C30.1075 114.784 30.0761 114.774 30.0675 114.739C29.8174 113.716 30.1455 112.641 30.5629 111.697C30.7903 111.186 31.1934 111.073 31.6505 111.084C29.9905 107.084 28.462 103.033 27.1415 98.9082C27.0973 98.7729 27.0543 98.6378 27.0114 98.5025C26.9473 98.3003 27.1372 98.0535 27.3357 98.026C28.7821 97.8304 30.2707 97.8513 31.7292 97.8321Z" fill="#1F2937"/>
<path fill-rule="evenodd" clip-rule="evenodd" d="M52.0233 51.601C52.5776 48.1248 52.4545 44.4242 54.0758 41.2087C56.88 35.8829 63.6396 34.5787 68.9346 32.8933C71.0368 32.4544 77.9523 32.9292 80.4211 32.3229C86.0088 30.9507 87.4836 28.8961 91.5274 32.6977C92.2094 33.3464 92.6141 34.0242 92.8763 34.9267L92.8623 34.9294C92.9279 35.3021 92.7964 35.658 92.5596 35.9189C94.2793 37.982 94.8317 40.911 93.6639 43.3774C89.9891 49.7442 89.8469 53.3361 90.2818 60.5358C91.0644 67.2877 87.8501 69.4706 82.5596 72.6815C82.7312 73.0916 82.731 73.6181 82.4376 73.9438C76.0024 81.5771 64.7924 84.5628 55.7889 79.6949C52.1354 77.7055 50.7695 73.5425 50.0981 69.8315C49.3027 65.6728 49.3041 61.3587 50.5553 57.2893C51.0798 55.4029 51.715 53.5394 52.0233 51.601Z" fill="white"/>
<path fill-rule="evenodd" clip-rule="evenodd" d="M88.4973 15.5435C87.8043 15.3816 87.2394 15.7729 86.9378 16.3644L86.9219 16.3963C86.8241 16.598 86.7176 16.7932 86.6045 16.9845C84.9186 15.9833 82.3959 16.0012 81.1441 17.651C80.2508 18.8293 80.615 20.3431 80.8071 21.6849L80.933 22.5689C80.5343 22.779 80.2134 23.1869 80.1907 23.6344L80.1895 23.6689L80.1714 24.886C79.9389 24.6095 79.7299 24.312 79.5475 23.9983C79.426 23.7262 79.2927 23.4577 79.1474 23.1963C78.2927 21.6577 76.0056 22.7495 76.6821 24.3779C76.8116 24.6919 76.9619 24.9915 77.1255 25.2819C77.3025 25.7051 77.4409 26.1367 77.5385 26.5763C77.1453 26.7106 76.8236 27.0533 76.7481 27.6038C76.5717 28.8894 77.1642 30.022 78.1907 30.7865C78.4928 31.0114 78.8182 31.0767 79.1219 31.0269C79.1687 31.1016 79.2154 31.1764 79.2598 31.2522C78.8004 31.5666 78.3792 31.9333 78.0092 32.3478C77.0153 32.1161 76.0093 31.9636 74.9977 31.8794C73.8102 31.1751 72.3287 31.0678 70.9815 31.1866C70.1142 31.263 69.27 31.4798 68.4117 31.6153C67.507 31.7574 66.6053 31.6924 65.6958 31.7653C64.5495 31.8569 63.5149 32.2977 62.8236 33.0789C62.1365 33.0439 61.3929 33.2654 60.7645 33.5971C59.3012 34.3696 57.8449 35.1553 56.3846 35.9339C55.8242 36.2328 55.5808 36.7627 55.6294 37.3796L55.6329 37.4191L55.6592 37.6755L55.5368 37.8221C55.0635 38.3861 54.5506 38.9755 54.2221 39.6138C53.6542 40.3042 53.1324 41.0339 52.6612 41.7917C52.0265 42.8101 51.4824 43.8998 51.082 45.031C50.9819 45.3173 50.8816 45.6058 50.8073 45.8998C50.7014 46.315 50.7856 46.6505 50.8133 47.0593C50.8471 47.5775 50.8325 48.0985 50.8708 48.6181C50.8968 48.9627 51.173 49.1534 51.4757 49.1871C51.2915 50.0437 51.1388 50.9087 50.9901 51.767C50.7794 52.9938 50.6038 54.2268 50.4385 55.4606C50.0638 55.9193 49.3471 56.2484 48.8413 56.3414C48.1409 56.4691 47.4385 56.2118 46.8095 55.9261C46.4141 55.7463 46.0386 56.2302 46.2094 56.5876C46.7465 57.7099 48.0815 57.8134 49.1305 57.4208C49.5744 57.2552 49.9732 56.9954 50.2821 56.6402C50.2359 56.9984 50.1885 57.3564 50.1411 57.7156L50.0976 58.041C49.5832 61.8397 48.82 65.7504 49.2327 69.5863C49.9473 76.2307 54.9724 81.6528 61.5725 82.5766C65.0359 83.0614 68.0167 82.2708 69.504 81.8155C70.9913 81.3602 70.5257 80.1487 69.4983 80.401C67.7286 80.8358 64.4936 81.435 61.6904 80.8362C55.0837 79.4248 49.6911 75.6371 51.4338 61.3455C51.681 59.3188 52.0997 57.305 52.3191 55.2762C52.5325 53.2926 52.6741 51.3021 52.9228 49.3226L53.007 48.6471C53.1054 47.8579 53.2065 47.0652 53.3302 46.277C53.4269 45.9756 53.5114 45.6687 53.6237 45.3743C53.9285 44.5732 54.3045 43.8008 54.7528 43.0709C54.8331 43.1427 54.9251 43.1971 55.0274 43.2237C55.8042 43.4286 56.5466 43.4486 57.3111 43.1807C57.6678 43.0572 57.9875 42.8804 58.2906 42.6541C58.4347 42.5478 58.534 42.4413 58.6143 42.3287C58.9708 42.3633 59.3365 42.2853 59.5808 42.0474C59.8594 41.7762 59.9262 41.4783 59.849 41.1912L59.8407 41.1625L59.8666 41.1554C60.1048 41.9569 60.6494 42.6894 61.2701 43.2046C62.2511 44.0216 63.5354 44.3386 64.7817 44.459C66.1579 44.591 67.6282 44.4971 69.0053 44.391C69.3692 44.3632 69.7315 44.3272 70.0888 44.268C70.1014 44.2827 70.1138 44.2998 70.1275 44.3146C71.2042 45.523 72.8223 45.9427 74.3543 45.4265C75.2396 45.1282 76.0049 44.5947 76.694 43.9679C76.6744 44.3236 76.6639 44.6801 76.6663 45.0342L76.6677 45.1748C76.6778 45.8348 76.7431 46.5392 77.2009 47.0519C77.9408 47.8826 79.1291 47.6696 80.0945 47.2462C80.0915 47.27 80.0894 47.295 80.0874 47.32C79.7691 48.1463 79.4495 48.9737 79.1299 49.8011L79.0612 49.9773C78.83 50.5644 78.5811 51.1509 78.4751 51.7764C78.2727 52.9717 78.9795 54.2257 80.3535 53.9304C81.0742 53.7763 81.6857 53.2318 82.2648 52.8029L82.6294 52.5365C81.5149 55.3404 80.6624 58.2686 80.3625 61.2644C80.3459 61.4268 80.4762 61.5611 80.6309 61.5793C80.9924 61.6235 81.3883 61.5834 81.765 61.4685C81.7856 61.469 81.8063 61.4695 81.8282 61.4679C82.4583 61.4284 83.0547 61.2511 83.5914 60.9612C83.4438 61.3238 83.359 61.7189 83.356 62.139C83.3558 62.2409 83.5114 62.289 83.5433 62.1794C83.9545 60.7593 85.7367 59.8053 87.1743 60.2C88.7175 60.6238 89.7629 62.0622 89.9219 63.6155C90.0921 65.2842 89.3576 67.1385 88.1793 68.3201C87.6369 68.8649 86.9461 69.3003 86.1628 69.3605C85.8047 69.3877 85.4389 69.3386 85.1037 69.2107C84.9612 69.1556 84.8292 69.0842 84.6947 69.016C84.4983 68.9177 84.262 68.886 84.0774 68.784C83.6586 68.5542 83.1894 68.9182 83.3735 69.3809C83.5337 69.7844 83.6848 70.0601 83.9868 70.2861C83.7036 70.5793 83.4344 70.9973 83.3382 71.1075C82.8473 71.6678 82.3523 72.1947 81.804 72.6989C81.246 73.2103 80.645 73.6702 80.0152 74.0899L79.7505 74.2659C79.1437 74.6708 78.6133 75.0486 78.1587 75.6632C77.8003 76.1484 78.1548 76.8746 78.7497 76.9148C80.611 77.0391 82.0946 75.5192 83.1726 74.1737C83.3259 73.9811 83.4722 73.7765 83.6099 73.5655C83.6476 73.6384 83.6903 73.7071 83.7391 73.7706L83.61 74.0465C83.2273 74.8585 84.5392 75.5156 84.9961 74.7657C85.3282 74.2223 85.7038 73.7098 86.1147 73.23C86.335 73.2169 86.559 73.1022 86.6914 72.9411C87.0265 72.5319 87.3985 72.1211 87.7199 71.6821C87.8894 71.5458 88.063 71.4156 88.2397 71.289C88.2842 71.335 88.3298 71.3811 88.373 71.4292C88.5424 71.9182 88.7641 72.3703 89.0494 72.8022L89.1106 72.8944C89.6582 73.7102 90.3888 74.559 91.3563 74.8261C91.6517 74.9072 91.9704 74.5585 91.7239 74.2992C91.086 73.6268 90.3067 73.1411 89.7283 72.4014C89.4433 72.0369 89.1866 71.6402 88.9716 71.2288L88.9228 71.1336C88.8871 71.0631 88.8504 70.9926 88.8126 70.9208C89.1146 70.7494 89.4168 70.5769 89.7189 70.4044C90.4527 71.1399 91.4541 71.5302 92.2808 72.1572L92.3629 72.2207C93.1085 72.8102 94.033 71.7146 93.4528 71.0251C92.813 70.2677 92.2992 69.3846 91.7452 68.5555C92.0785 68.0458 92.2669 67.4264 92.37 66.7934C92.4049 66.6147 92.4353 66.4355 92.4658 66.2564C92.9078 66.299 93.3649 66.1837 93.7624 65.9536L93.9132 65.8639C94.3588 66.0466 94.8333 66.156 95.294 66.1807C96.3779 66.2364 96.9202 65.04 96.3069 64.2058C95.6813 63.3534 94.4875 63.0815 93.4992 63.3909C93.4697 63.3725 93.4391 63.3528 93.4097 63.3333C93.4723 63.1276 93.4775 62.9369 93.4391 62.7659L93.4624 62.6654C93.6989 62.3603 93.8671 62.0038 93.951 61.6194C94.0175 61.315 94.0337 61.0093 93.9869 60.6996C93.9714 60.5965 93.9305 60.4877 93.9013 60.3792C93.9949 60.1895 94.0571 59.9907 94.0877 59.7882C94.1116 59.7641 94.1354 59.7394 94.1582 59.7124C94.6869 59.0857 94.6559 58.2766 94.2476 57.7018C94.2483 57.6674 94.2479 57.6329 94.2459 57.5985C94.2772 57.5412 94.3064 57.4832 94.3334 57.4244C94.8109 57.0158 95.1784 56.5074 95.1716 55.84C95.1677 55.4473 95.0355 55.0834 94.8136 54.8014C94.867 54.6777 94.8831 54.5307 94.8408 54.4034C95.3121 53.4056 95.3634 52.1619 95.1774 50.9882C95.2532 50.8179 95.3005 50.6305 95.3099 50.4286C95.3472 49.5715 94.6694 48.7263 93.7902 48.6655C93.6844 48.6578 93.5843 48.6636 93.4875 48.676L93.4879 48.6555C93.4751 48.3963 93.4235 48.1536 93.3375 47.9326C93.3898 47.9184 93.4389 47.8959 93.4829 47.8643C94.0214 48.2093 94.5984 48.4865 95.2102 48.693C95.66 48.8449 96.1724 48.3624 95.9218 47.9095C95.8056 47.6993 95.6739 47.5083 95.5298 47.332C95.7535 47.3514 95.9795 47.3849 96.2069 47.433C96.6155 47.5199 97.0991 47.2761 97.3979 46.9178C97.7048 47.2679 98.0129 47.617 98.3211 47.9661C99.1012 48.8527 100.429 48.3543 100.649 47.2864C100.907 47.2397 101.151 47.145 101.371 46.999C102.658 47.685 104.069 48.1188 105.532 48.2979C106.582 48.4265 107.297 47.2521 106.875 46.3474C106.591 45.7404 106.222 45.186 105.786 44.6948C106.502 44.9784 107.248 45.2014 108.014 45.3677C108.428 45.4573 109.048 45.1594 109.247 44.7895C110.007 43.3668 110.077 41.8251 109.455 40.3306C109.431 40.2714 109.403 40.2142 109.377 40.1571C109.316 39.9609 109.248 39.7664 109.173 39.5747C110.157 38.7039 110.35 37.3062 109.955 36.0912C110.177 35.7896 110.284 35.4134 110.178 35.0567C109.879 34.0303 109.406 33.0666 108.779 32.221C108.855 32.0989 108.924 31.9682 108.985 31.8265C109.469 30.6804 109.134 29.2228 108.291 28.3288C107.762 27.7659 107.13 27.4032 106.444 27.1485C106.191 26.6034 105.849 26.1027 105.439 25.6709C105.425 25.632 105.41 25.5931 105.394 25.554C104.81 24.2033 103.612 23.4077 102.28 23.1383C102.268 22.6278 101.965 22.1165 101.481 21.9192C101.379 21.47 101.209 21.0348 100.959 20.632C100.566 19.9978 99.8555 19.6562 99.1325 19.9928C98.7364 20.1772 98.3537 20.3947 97.9917 20.6403C97.8448 20.5565 97.6755 20.4963 97.4814 20.4657L97.4323 20.4587L96.3123 20.3108C95.8581 20.0644 95.4058 19.8079 94.952 19.557C94.688 19.3008 94.3878 19.0806 94.055 18.9082C93.6781 18.714 93.2863 18.5895 92.8884 18.5263C92.5719 18.3942 92.2521 18.2744 91.9249 18.1746C91.1563 17.9406 90.3451 17.7787 89.5323 17.7209C89.5326 17.5098 89.5416 17.297 89.5605 17.0824L89.5709 16.975C89.6448 16.2881 89.1384 15.6939 88.4973 15.5435ZM84.826 70.6839C84.9358 70.7169 85.0472 70.7453 85.159 70.7681C85.118 70.8496 85.0769 70.931 85.037 71.0125C84.9416 71.0563 84.8453 71.0978 84.7492 71.1358C84.7891 70.9833 84.8177 70.8287 84.826 70.6839ZM90.8269 69.4213L90.8914 69.5667C90.9019 69.5905 90.9121 69.614 90.9223 69.6371C90.7624 69.6116 90.6002 69.6019 90.439 69.6071L90.4409 69.5902C90.462 69.5849 90.483 69.5802 90.5034 69.5723C90.6179 69.5284 90.7251 69.4775 90.8269 69.4213ZM88.1742 62.8097C87.1604 62.7867 86.2929 62.8718 85.3395 63.2378L85.2575 63.2699C84.414 63.6059 83.0126 64.2392 83.0393 65.3122C83.0468 65.6174 83.2411 65.9538 83.5898 65.958C84.5452 65.9701 85.1655 65.0583 85.8571 64.5141C86.5548 63.9659 87.4021 63.4126 88.2215 63.0632C88.3373 63.0141 88.3084 62.8265 88.188 62.8108L88.1742 62.8097ZM93.8854 49.1633C94.1266 49.1909 94.0266 49.4187 93.9181 49.213C93.9091 49.1962 93.8979 49.1792 93.8854 49.1633ZM82.0994 32.4588C84.3847 32.7043 86.5804 34.2398 88.1856 35.7422C89.5821 37.0492 90.7567 38.5645 91.7747 40.1776C92.007 40.9587 92.1965 41.7523 92.3464 42.5484C92.445 43.074 92.4908 43.6011 92.5662 44.1295L92.5898 44.2915C92.6682 44.471 92.7218 44.6617 92.7562 44.857C92.5315 45.0482 92.2496 45.1753 91.9469 45.2219C91.8494 45.2369 91.7659 45.2797 91.6977 45.34C91.4909 44.9226 91.3159 44.4856 91.2304 44.0304L91.2276 44.0094C90.8288 43.2214 90.3886 42.4534 89.9104 41.7075C88.5915 39.648 87.1093 37.7482 85.2745 36.1188C83.8831 34.8837 82.2977 33.8758 80.5825 33.1654C81.0416 32.8534 81.5534 32.6186 82.0994 32.4588Z" fill="#1F2937"/>
<path fill-rule="evenodd" clip-rule="evenodd" d="M58.0376 72.9785C58.8582 73.2893 59.7584 73.384 60.6352 73.2027C61.4305 73.0381 62.2686 72.6023 62.894 71.9863C63.4496 71.4391 63.8364 70.7508 63.8853 69.9866C63.8909 69.8993 63.8655 69.824 63.822 69.7637C63.7752 69.6987 63.7063 69.6511 63.6304 69.6267C63.5523 69.6016 63.4676 69.6014 63.3933 69.6281C63.326 69.6522 63.2664 69.6977 63.2257 69.7678C63.1285 69.8758 63.0318 69.9822 62.935 70.0854C62.1581 70.8984 61.4212 71.4934 60.34 71.6406C59.7533 71.7205 59.1821 71.6178 58.6696 71.3819C58.1209 71.1294 57.6392 70.7245 57.2763 70.2269C57.1123 70.002 56.9056 69.8989 56.6967 69.8805C56.4601 69.8597 56.2171 69.9505 56.0266 70.1117C55.8393 70.2701 55.7043 70.495 55.6739 70.7393C55.6473 70.9537 55.6994 71.1842 55.8704 71.3998C56.4334 72.1102 57.1933 72.6587 58.0376 72.9785ZM58.9461 62.0811C58.0424 62.5337 56.6314 63.6452 57.4532 65.015C58.4514 66.245 60.1278 65.0632 60.9496 64.5338C61.7043 64.1331 62.4149 65.3784 61.7058 65.8602C55.7796 69.5372 54.1197 61.8278 58.5601 61.4318C59.0491 61.3881 59.1848 61.9379 58.9461 62.0811ZM67.1895 60.4355C67.4806 60.2813 67.8112 60.247 68.1589 60.44C68.4305 60.5908 68.8907 61.0574 69.1895 61.646C69.394 62.0486 69.5246 62.5121 69.4518 62.978C69.435 63.0862 69.4688 63.1698 69.5276 63.2343C69.574 63.2852 69.6438 63.3255 69.7281 63.3432C69.7997 63.3582 69.8814 63.3565 69.9489 63.3413C70.0773 63.3125 70.1502 63.2368 70.1805 63.1726C70.4733 62.5536 70.4271 61.8326 70.209 61.1678C69.9147 60.2707 69.3115 59.4904 68.8967 59.2209C68.1869 58.7597 67.3127 58.6704 66.5362 59.0188C65.8753 59.3153 65.4342 59.8448 64.9943 60.3852C64.9008 60.5001 64.808 60.6142 64.7126 60.7259C64.5214 60.9497 64.4852 61.1841 64.5354 61.3917C64.5911 61.6216 64.7639 61.8259 64.9911 61.9439C65.2011 62.0529 65.4524 62.0862 65.6833 62.0104C65.8784 61.9463 66.064 61.8056 66.1948 61.5519C66.4151 61.1248 66.7619 60.6619 67.1895 60.4355V60.4355ZM53.0498 60.2806C53.2314 60.3945 53.3773 60.4362 53.5927 60.3904C53.7118 60.365 53.8322 60.3075 53.9295 60.225C54.0258 60.1432 54.0992 60.0378 54.1341 59.9171C54.2202 59.6191 54.4093 59.349 54.661 59.1834C54.8762 59.0417 55.1384 58.9787 55.4179 59.0489C55.7195 59.1245 55.995 59.3437 56.1769 59.5906C56.2377 59.6732 56.2832 59.7651 56.329 59.8564C56.4147 60.0272 56.4985 60.1863 56.6251 60.3169C56.6731 60.3665 56.7484 60.4044 56.8239 60.4105C56.8545 60.4129 56.886 60.4105 56.9164 60.4037C57.2454 60.1236 57.3226 59.8972 57.3314 59.6672C57.3406 59.426 57.2652 59.1749 57.1301 58.9353C56.8131 58.3734 56.1646 57.8813 55.7111 57.745C55.0901 57.5583 54.4494 57.6702 53.9177 57.9815C53.3706 58.3019 52.9414 58.8333 52.7704 59.4575C52.7293 59.6079 52.7282 59.7736 52.7749 59.9212C52.8205 60.0655 52.9101 60.1931 53.0498 60.2806ZM66.2556 54.6429C66.605 55.0422 67.0493 55.1356 67.4993 55.2232C67.7493 55.2721 67.9489 55.3113 68.1435 55.372C68.6783 55.5388 69.2019 55.7672 69.6717 56.073C70.1627 56.3928 70.6953 56.7736 71.0631 57.236C71.1506 57.346 71.2322 57.4606 71.3138 57.5755C71.3883 57.6802 71.4601 57.7811 71.5364 57.8789C71.624 57.9912 71.7064 58.1082 71.7883 58.2248C71.8369 58.3216 71.8462 58.3452 71.8556 58.3697C71.8697 58.4066 71.8863 58.4479 71.9054 58.4923C71.9317 58.5532 71.9627 58.62 71.996 58.6809C72.0506 58.7919 72.0821 58.8238 72.1104 58.8392C72.1572 58.8647 72.2024 58.8791 72.2476 58.8769C72.29 58.8749 72.3311 58.8581 72.3728 58.8283C72.5808 58.68 72.66 58.4153 72.6772 58.129C72.7034 57.6944 72.5819 57.2011 72.458 56.8939C72.1697 56.1799 71.7506 55.4281 71.2187 54.8696C70.6117 54.2322 69.9318 53.7317 69.1343 53.3602C68.6387 53.1293 68.0612 52.9074 67.5028 52.8843C67.1009 52.8677 66.7088 52.9555 66.3689 53.2267C66.1601 53.3931 66.0461 53.6446 66.0251 53.9035C66.0037 54.1675 66.0789 54.441 66.2556 54.6429ZM52.5447 56.9302C52.5656 56.9716 52.5968 57.0015 52.6326 57.0208C52.6701 57.041 52.7132 57.0495 52.7555 57.0459C52.7976 57.0422 52.8386 57.0267 52.8722 57.0005C52.9045 56.9754 52.9303 56.9408 52.9441 56.8969C53.2852 55.8141 53.8406 55.0329 54.927 54.5881C55.4615 54.3693 56.0651 54.2517 56.6346 54.165C56.8001 54.1398 56.9737 54.1289 57.1485 54.1177C57.6965 54.0827 58.2493 54.0365 58.6377 53.6284C58.8717 53.3826 58.9882 53.0534 58.9626 52.7417C58.9386 52.4482 58.7904 52.1689 58.4948 51.9847C57.759 51.5265 56.7732 51.8378 55.9709 52.1061C55.9114 52.126 55.853 52.1456 55.7958 52.1644C55.0116 52.4223 54.2858 52.7878 53.6684 53.3445C53.1786 53.7862 52.7034 54.4593 52.4761 55.173C52.2871 55.7667 52.27 56.387 52.5447 56.9302Z" fill="#1F2937"/>
</svg>
