<svg width="20" height="20" viewBox="0 0 20 20" fill="none" xmlns="http://www.w3.org/2000/svg">
<path d="M3.68872 17.0006L2.28497 1.25H17.715L16.3093 16.9981L9.9906 18.75L3.68872 17.0006Z" fill="#1572B6"/>
<path d="M10 17.4112L15.1062 15.9956L16.3075 2.53809H10V17.4112Z" fill="#33A9DC"/>
<path d="M10 8.24435H12.5563L12.7325 6.26623H10V4.33435H14.8438L14.7975 4.85248L14.3231 10.1762H10V8.24435Z" fill="white"/>
<path d="M10.0119 13.2612L10.0031 13.2637L7.8519 12.6825L7.7144 11.1418H5.77502L6.04565 14.175L10.0025 15.2737L10.0119 15.2712V13.2612Z" fill="#EBEBEB"/>
<path d="M12.3919 10.0944L12.1594 12.6812L10.005 13.2625V15.2725L13.965 14.175L13.9944 13.8487L14.33 10.0944H12.3919Z" fill="white"/>
<path d="M10.0069 4.33435V6.26623H5.34061L5.30186 5.83185L5.21373 4.85248L5.16748 4.33435H10.0069ZM9.99998 8.24435V10.1762H7.87561L7.83686 9.74185L7.74936 8.76248L7.70311 8.24435H9.99998Z" fill="#EBEBEB"/>
</svg>
