<svg width="20" height="20" viewBox="0 0 20 20" fill="none" xmlns="http://www.w3.org/2000/svg">
<path d="M17.9166 7.07333V14.0625C17.9166 15.2708 16.9375 16.25 15.7291 16.25H4.27081C3.69065 16.25 3.13425 16.0195 2.72402 15.6093C2.31378 15.1991 2.08331 14.6427 2.08331 14.0625V7.07333L9.74915 11.29C9.9054 11.3758 10.095 11.3758 10.2508 11.29L17.9166 7.07292V7.07333ZM15.7291 3.75C16.3002 3.75005 16.8486 3.9734 17.2571 4.37232C17.6657 4.77125 17.9021 5.31413 17.9158 5.885L9.99998 10.2392L2.08415 5.88458L2.08498 5.84708C2.10831 5.28302 2.34882 4.74983 2.75619 4.35899C3.16357 3.96815 3.70627 3.74995 4.27081 3.75H15.7291Z" fill="#115E59"/>
</svg>
