<svg width="20" height="20" viewBox="0 0 20 20" fill="none" xmlns="http://www.w3.org/2000/svg">
<g clip-path="url(#clip0_36_185)">
<path d="M19.6228 9.10913L10.8906 0.377412C10.388 -0.125479 9.57242 -0.125479 9.06922 0.377412L7.25594 2.19069L9.55617 4.49093C10.0907 4.3103 10.7037 4.43147 11.1298 4.85757C11.5579 5.2864 11.6782 5.9046 11.4932 6.44085L13.71 8.65772C14.2463 8.47296 14.8652 8.59249 15.2935 9.02155C15.8922 9.61999 15.8922 10.5899 15.2935 11.1887C14.6947 11.7876 13.7248 11.7876 13.1256 11.1887C12.6753 10.738 12.5641 10.0766 12.792 9.52187L10.7247 7.45452L10.7245 12.8949C10.8743 12.969 11.0112 13.0669 11.1298 13.1848C11.7284 13.7832 11.7284 14.7532 11.1298 15.3525C10.5309 15.9511 9.56055 15.9511 8.96258 15.3525C8.36391 14.7532 8.36391 13.7833 8.96258 13.1848C9.10605 13.0413 9.27655 12.9276 9.46422 12.8504V7.35929C9.27627 7.28256 9.10568 7.16882 8.96258 7.02483C8.50898 6.57187 8.39992 5.90632 8.63234 5.34937L6.36484 3.08163L0.377344 9.06874C-0.125781 9.5721 -0.125781 10.3878 0.377344 10.8908L9.10969 19.6226C9.61242 20.1256 10.4279 20.1256 10.9312 19.6226L19.6227 10.9313C20.1257 10.4282 20.1257 9.61202 19.6227 9.10913" fill="#DE4C36"/>
</g>
<defs>
<clipPath id="clip0_36_185">
<rect width="20" height="20" fill="white"/>
</clipPath>
</defs>
</svg>
