<svg width="183" height="234" viewBox="0 0 183 234" fill="none" xmlns="http://www.w3.org/2000/svg">
<path fill-rule="evenodd" clip-rule="evenodd" d="M177.785 139.989C175.236 140.239 172.687 140.489 170.139 140.739C157.933 141.672 145.731 143.619 133.619 144.788C133.317 144.297 132.727 144.378 132.368 144.719C131.16 144.614 129.805 143.69 128.71 144.651C128.675 144.646 128.639 144.64 128.603 144.636C126.654 140.895 125.306 136.904 123.998 132.908C123.164 130.451 122.041 128.073 119.965 126.423C116.423 123.965 108.308 118.979 104.149 119.189C104.08 118.444 103.733 117.677 103.163 117.181C104.419 115.039 99.3965 113.642 99.0422 113.89C99.2692 106.735 95.9036 100.521 88.4822 99.0964C81.8336 97.711 72.377 97.4782 68.8013 104.426C68.4082 104.382 64.3903 104.361 64.0015 104.405C63.3971 103.639 56.7594 110.893 59.4799 113.419C35.1574 124.178 21.3276 122.894 14.5955 153.142C13.6854 155.983 13.6191 159.093 12.6581 161.871C9.23901 169.854 6.46578 178.356 5.7756 187.043C4.10866 187.47 3.91696 190.409 5.84778 190.834C6.58531 190.997 7.20206 191.219 7.73984 191.64C7.31944 198.759 9.04123 215.021 10.1261 214.971C12.3381 222.011 22.205 223.998 29.1904 221.524C27.9862 223.79 29.1904 225.214 29.1904 226.424C54.3258 227.375 81.8087 226.828 106.937 228.132C110.152 228.086 113.532 228.921 116.703 228.441C118.636 227.977 118.64 224.937 116.678 224.561L125.248 222.7C125.056 222.628 128.78 220.151 131.595 215.522C134.214 210.344 132.432 204.094 133.619 198.462C142.89 197.704 152.314 197.38 161.484 195.809C162.734 199.55 168.147 195.076 169.867 193.277C169.865 193.274 169.863 193.271 169.861 193.268C170.693 193.041 171.361 192.26 171.383 191.336C171.967 190.502 172.09 189.326 171.53 188.52C174.096 173.712 178.008 158.592 179.423 143.644C179.922 143.534 180.393 143.314 180.792 142.977L180.76 142.944C181.436 142.19 181.568 140.889 180.44 140.249C179.531 139.731 178.772 139.892 177.785 139.989Z" fill="white"/>
<path fill-rule="evenodd" clip-rule="evenodd" d="M69.2646 102.813C70.0219 100.91 72.5819 101.649 72.2965 103.649C72.1257 104.846 71.4697 106.111 70.8806 107.161C70.4008 108.015 69.8536 108.849 69.1116 109.49C70.4324 110.722 71.8033 111.909 73.2091 113.036C74.743 114.266 76.3559 115.4 78.0231 116.442C79.4851 117.356 81.0131 118.166 82.3912 119.208C83.6725 120.178 84.8398 121.343 85.4338 122.865C86.0666 124.486 85.7916 126.16 85.3256 127.779L85.2721 127.963C84.7961 129.567 83.972 131.501 85.1147 133.013C85.6964 133.783 86.542 134.328 87.2722 134.943C87.9212 135.49 88.5303 136.085 89.089 136.723C90.3071 138.116 91.2979 139.683 91.9231 141.429L91.979 141.587C92.5149 143.133 92.9066 145.026 92.1825 146.544C91.9747 146.979 91.3047 146.837 91.1883 146.414C90.9252 145.454 90.939 144.449 90.7184 143.476C90.4888 142.464 90.1069 141.504 89.608 140.595C88.6428 138.837 87.3356 137.335 85.7912 136.065L85.3289 135.689C84.1241 134.7 83.0172 133.652 82.7726 132.015C82.5109 130.264 83.2124 128.597 83.6634 126.94C83.9777 125.785 84.0804 124.678 83.7407 123.634C83.3257 124.312 82.7596 124.955 82.3118 125.528C81.4199 126.67 80.5196 127.806 79.6216 128.944C78.701 130.11 77.8031 131.295 76.948 132.511C76.5655 133.055 76.1871 133.602 75.8099 134.149C75.5263 134.561 75.1308 134.972 74.8217 135.392C74.8968 135.616 74.8911 135.875 74.7549 136.059C73.1155 138.274 70.7833 133.652 70.175 132.485C68.9363 130.107 68.0145 127.581 66.7717 125.203C65.4839 122.739 64.0175 120.34 62.3831 118.09C61.3945 116.729 60.2865 115.451 59.3821 114.046C57.2515 115.978 54.4479 117.273 51.8727 118.448C49.0433 119.738 46.1038 120.792 43.2029 121.911L42.346 122.244C37.3476 124.195 32.227 126.338 28.0724 129.803C23.1903 133.875 20.3021 139.55 18.1519 145.426C15.6767 152.192 13.6289 159.14 11.72 166.084C10.7432 169.636 9.81633 173.205 8.94497 176.785C8.17713 179.939 7.54066 183.125 6.6518 186.247C8.45449 186.183 10.5105 186.881 12.0495 187.082C19.0638 188 25.9836 189.464 32.6059 191.998C33.4239 192.311 33.6606 193.128 33.4824 193.79C33.9542 193.657 34.4255 193.522 34.8973 193.39C34.3804 192.598 34.6271 191.182 34.6678 190.304L34.6702 190.244C34.712 189.074 34.8389 187.903 34.9212 186.736C35.0779 184.51 35.2818 182.301 35.5531 180.088L35.6223 179.535C35.9296 177.128 36.1568 174.706 36.4922 172.303L36.5318 172.028C36.371 171.413 36.1838 170.806 35.9873 170.201C35.4636 168.59 34.7245 167.074 34.0768 165.514C34.0004 165.33 34.262 165.225 34.3843 165.335C35.4813 166.322 36.3526 167.574 37.0526 168.883C37.0648 168.821 37.0755 168.759 37.0882 168.697L37.168 168.304C37.365 167.345 37.6046 166.337 38.1928 165.559C38.2555 165.476 38.3793 165.459 38.4386 165.559C39.0015 166.512 39.0645 167.718 39.1511 168.802C39.2491 170.028 39.2614 171.27 39.2441 172.499C39.2103 174.902 39.041 177.312 38.906 179.711C38.7737 182.068 38.5137 184.396 38.1787 186.73L38.115 187.168C37.9512 188.279 37.8171 189.404 37.6011 190.507L37.5401 190.808C37.4246 191.355 37.3536 192.127 37.1237 192.768C43.0383 191.118 48.962 189.506 54.8969 187.922C59.1865 186.777 63.4804 185.65 67.7726 184.515C67.9991 184.107 68.2811 183.725 68.6331 183.385C69.7927 182.262 71.3295 181.761 72.7389 182.625C72.8535 182.696 72.8632 182.875 72.7389 182.943C72.4689 183.091 72.1983 183.242 71.9325 183.4L74.5099 182.702C76.4362 182.18 78.3856 181.527 80.3574 181.163C83.989 179.371 87.8949 178.074 91.7205 176.792L92.1714 176.64C94.1302 175.972 96.1563 175.224 98.1801 174.854C99.6617 174.583 101.401 174.91 101.997 176.428C102.751 176.925 103.461 177.509 104.145 178.084C104.64 178.499 105.115 178.94 105.598 179.37L105.687 179.448C106.081 179.79 106.394 180.02 106.491 180.564C106.541 180.846 106.362 181.226 106.015 181.189C104.952 181.075 104.089 179.844 103.368 179.109C102.812 178.541 102.251 177.953 101.743 177.329C101.447 177.49 101.041 177.461 100.853 177.104C99.8751 175.253 97.1977 176.536 95.7163 176.975L93.5941 177.603C92.5331 177.917 91.4725 178.233 90.4137 178.555C87.5037 179.439 84.608 180.428 81.6715 181.239C81.9343 181.528 81.898 182.042 81.399 182.237C79.1005 183.139 76.5788 183.605 74.1909 184.224C72.6833 184.615 71.1765 185.009 69.6703 185.404C69.412 185.823 69.2262 186.296 69.148 186.847C68.8606 188.873 69.4149 191.21 69.9549 193.17L70.0363 193.462C70.4802 195.037 71.1333 196.969 72.4925 197.963C72.8242 198.206 73.2467 198.375 73.6726 198.413C76.3333 197.043 78.9937 195.674 81.6558 194.307C82.149 194.054 82.6046 194.397 82.7153 194.804C83.654 194.65 84.5905 194.408 85.4434 194.118C86.8767 193.631 87.9958 192.703 89.3394 192.061C91.9392 190.819 94.5941 192.345 96.9218 193.505L97.4583 193.768C98.5022 194.275 100.674 195.248 101.175 193.862C101.659 192.522 100.128 191.09 99.1383 190.487C97.9593 189.768 96.5864 189.383 95.2538 189.063C94.4929 188.88 93.7228 188.73 92.948 188.621C92.0691 188.497 91.1614 188.516 90.3152 188.231C89.8947 188.09 89.83 187.422 90.3152 187.311C91.6178 187.015 93.1724 187.338 94.5318 187.669L95.2422 187.844C96.6117 188.18 97.9944 188.602 99.2419 189.272C100.149 189.76 101.106 190.5 101.732 191.407C102.275 190.903 102.951 190.92 103.655 191.107L104.037 191.213C104.668 191.388 105.18 191.508 105.794 191.387C105.876 190.94 105.959 190.493 106.048 190.046C106.923 185.653 107.883 181.277 108.942 176.924C110.769 169.415 112.882 161.989 115.265 154.639L115.504 153.905C116.054 152.224 116.496 150.392 117.382 148.848C118.22 147.387 119.562 146.546 121.158 146.1C122.968 145.595 124.87 145.33 126.716 144.989C127.128 144.913 127.541 144.841 127.954 144.766C127.605 144.137 127.345 143.423 127.111 142.875L127.07 142.78C126.567 141.632 126.114 140.464 125.678 139.29L125.351 138.407C124.563 136.281 123.749 134.19 122.641 132.202C121.475 130.109 119.927 128.399 117.998 126.983C114.064 124.096 109.323 122.623 105.508 119.537C105.352 119.411 105.552 119.195 105.711 119.275C108.287 120.569 111.068 121.449 113.747 122.503L114.276 122.712C116.394 123.551 118.544 124.465 120.377 125.824C122.421 127.34 124.031 129.222 125.24 131.461C126.433 133.667 127.195 136.137 128.037 138.493L128.262 139.121C128.601 140.063 128.951 141.002 129.353 141.918C129.672 142.646 130.267 143.476 130.537 144.307C131.277 144.179 132.016 144.05 132.757 143.927C148.797 141.249 165.016 139.675 181.271 139.215C181.907 139.197 182.236 139.804 182.142 140.358C180.582 149.583 179.196 158.838 177.675 168.07C177.011 172.098 176.334 176.124 175.641 180.148C175.289 182.187 174.884 184.218 174.551 186.259C174.283 187.908 174.088 189.57 173.627 191.181C173.214 192.625 172.579 194.017 171.537 195.119C170.414 196.307 168.847 196.882 167.269 197.153C163.264 197.842 159.155 198.124 155.118 198.583L133.62 201.029C133.934 203.884 133.957 206.696 133.813 209.584L133.731 211.161C133.664 212.43 133.584 213.7 133.401 214.955C133.173 216.53 132.453 217.864 131.391 219.04C130.417 220.12 129.233 221.042 128.082 221.925C126.887 222.842 125.652 223.727 124.247 224.294L124.064 224.366C122.832 224.848 120.519 225.593 118.834 225.321C119.054 226.424 119.481 227.611 119.103 228.703C118.927 229.21 118.264 229.463 117.858 229.031C117.053 228.176 116.991 227.047 116.8 225.931C116.602 224.77 116.431 223.605 116.279 222.438C115.985 220.18 115.756 217.901 115.687 215.624C115.615 213.285 115.642 210.944 115.768 208.608C115.833 207.408 115.914 206.209 116.066 205.017C116.131 204.509 116.197 204 116.273 203.493C116.301 203.308 116.331 203.124 116.364 202.94L114.435 203.158C111.476 203.489 108.516 203.787 105.536 203.833C105.184 203.838 104.912 203.678 104.735 203.444C104.546 203.752 104.217 203.972 103.745 203.97C99.5842 203.955 95.7093 202.594 91.9247 200.991C90.0171 200.182 88.1391 199.307 86.2286 198.505C84.4454 197.757 82.539 197.223 80.7987 196.38L76.226 198.779C76.1924 198.897 76.1494 199.008 76.1037 199.102C75.806 199.709 75.219 200.039 74.6194 200.287C74.044 200.526 73.4481 200.6 72.8674 200.54C69.3995 202.357 65.9307 204.173 62.4596 205.984L58.9876 207.794C52.0703 211.396 45.1803 215.057 38.2194 218.574L37.7069 218.832C35.3026 220.037 32.7209 221.259 30.0527 222.171C30.0052 222.846 30.0352 223.503 30.0918 224.218L30.1054 224.374C30.1849 225.219 30.3555 226.277 29.6779 226.878C29.3254 227.191 28.6957 227.192 28.456 226.721C28.021 225.866 28.4115 224.518 28.5493 223.589C28.5982 223.258 28.6578 222.919 28.746 222.589C25.6871 223.5 22.5356 223.941 19.4229 223.43C16.3922 222.932 14.045 221.023 12.1527 218.688C10.1556 216.224 8.7365 213.352 7.97509 210.273C7.10855 206.77 7.05197 203.152 7.07231 199.563C7.09391 195.742 7.23527 191.902 7.70004 188.107C7.19083 187.987 6.6261 187.883 6.11153 187.919C5.85666 188.327 5.36226 188.499 4.91551 188.446C3.94402 189.517 6.40817 190.612 7.19565 190.886C7.46908 190.982 7.43981 191.426 7.12443 191.412L6.92577 191.403C5.70898 191.338 4.45187 191.13 3.73645 190C3.16315 189.093 3.33539 188.019 4.01881 187.28C4.47019 183.012 5.54931 178.856 6.55364 174.693C7.53923 170.607 8.6353 166.547 9.79705 162.507L10.3179 160.699C12.147 154.365 14.059 147.979 16.5821 141.897C17.842 138.86 19.2935 135.879 21.2609 133.23C23.0948 130.762 25.26 128.65 27.7488 126.845C32.3885 123.482 37.8327 121.449 43.1819 119.513L43.4213 119.426C46.1934 118.424 48.9586 117.409 51.6991 116.323C54.1227 115.362 56.4446 114.144 58.8568 113.168C58.7784 113.026 58.7028 112.882 58.6299 112.737L58.5854 112.774C58.5777 112.78 58.5699 112.786 58.5618 112.792C58.3192 112.96 57.9621 112.877 57.7622 112.689C57.1977 112.156 57.3888 111.565 57.7656 111.012L57.8146 110.942C58.2755 110.297 58.6865 109.614 59.1119 108.945L59.3782 108.527C60.0921 107.409 60.8424 106.284 61.7943 105.36C62.2351 104.932 62.7178 104.612 63.2291 104.374C63.1854 104.281 63.5688 104.092 63.6775 104.187C65.2976 103.594 67.1615 103.719 68.9278 103.882M132.579 201.147L130.327 201.403C127.849 201.685 125.37 201.958 122.891 202.228L117.505 202.813C117.492 203.12 117.454 203.42 117.447 203.652C117.412 204.847 117.386 206.043 117.361 207.239C117.311 209.636 117.366 212.035 117.524 214.427C117.677 216.745 117.878 219.063 118.191 221.365L118.255 221.825L118.292 222.067C118.548 222.092 118.799 222.213 119.007 222.462C119.463 223.006 121.112 222.478 121.756 222.248C122.816 221.871 123.813 221.235 124.734 220.596C125.633 219.972 126.442 219.245 127.22 218.479L127.856 217.85C128.489 217.221 129.123 216.551 129.511 215.759C130.037 214.686 130.105 213.369 130.259 212.2C130.449 210.763 130.675 209.326 130.914 207.895M67.1909 186.058L66.9573 186.119C58.4702 188.374 49.9958 190.696 41.4826 192.852C37.2697 193.918 33.0368 194.908 28.8186 195.954L28.1357 196.125C24.8081 196.966 21.4405 197.978 18.8922 200.392C18.7982 200.481 18.6616 200.344 18.7502 200.25C21.4965 197.326 25.4025 196.089 29.1528 195.016C29.846 194.818 30.5401 194.624 31.2335 194.427C26.1332 192.608 20.9523 191.027 15.6519 189.898C14.287 189.608 12.9062 189.394 11.5424 189.103C10.5913 188.899 9.66246 188.605 8.72139 188.361L7.98115 188.175L7.97132 190.514C7.959 193.828 7.96489 197.139 8.13394 200.452L8.16594 201.066C8.36317 204.753 8.67104 208.516 9.97946 211.993C11.0427 214.818 12.7374 217.479 14.9536 219.537C16.0751 220.578 17.2807 221.388 18.7711 221.789C20.1548 222.16 21.6047 222.204 23.0272 222.105C29.8505 221.629 35.9243 217.922 41.8514 214.853C51.5461 209.834 61.2419 204.817 70.9464 199.816C70.6841 199.637 70.437 199.43 70.2123 199.198C68.911 197.854 68.2245 196.014 67.7737 194.232C67.2937 192.336 67.0067 190.303 66.9734 188.345M79.539 201.754C79.6247 201.708 79.7239 201.766 79.7279 201.862C79.7578 202.603 79.3482 203.335 79.0422 204.002L79.0098 204.074C78.638 204.901 78.2309 205.717 77.8099 206.52C76.9683 208.125 76.0937 209.712 75.181 211.277C73.3454 214.426 71.3057 217.442 68.8948 220.184C68.3502 220.803 67.4546 220.009 67.804 219.342C69.4889 216.127 71.4532 213.092 73.475 210.084C74.4872 208.577 75.4987 207.069 76.5209 205.57C76.9473 204.944 77.3792 204.321 77.8227 203.706L78.0903 203.339M180.196 141.056C171.679 141.313 163.173 141.868 154.696 142.739C146.813 143.548 138.959 144.626 131.15 145.969C129.518 146.25 127.889 146.542 126.262 146.845L125.286 147.029C123.659 147.337 121.671 147.464 120.222 148.334C118.694 149.25 118.281 151.166 117.773 152.745C117.175 154.603 116.593 156.466 116.026 158.334C113.776 165.748 111.72 173.227 109.886 180.756C108.976 184.493 108.169 188.251 107.318 192.001C106.561 195.333 105.727 198.628 104.856 201.927C104.963 201.843 105.095 201.78 105.254 201.746C109.582 200.825 114 200.425 118.392 199.916L118.817 199.867C123.361 199.332 127.905 198.802 132.452 198.291L162.555 194.905C164.33 194.706 166.232 194.679 167.96 194.202C170.897 193.392 171.586 190.108 172.079 187.493L172.094 187.413C173.579 179.511 174.762 171.541 176.148 163.619M105.556 192.741C104.388 192.664 102.788 191.594 101.901 191.67C102.367 192.451 102.577 193.342 102.309 194.293C101.562 196.941 98.1856 195.571 96.5592 194.762C95.2258 194.099 93.9382 193.287 92.462 192.976C90.7896 192.625 89.6566 193.29 88.2437 194.056C87.0832 194.686 85.8193 195.138 84.5196 195.372C83.8285 195.497 83.172 195.51 82.5168 195.461C82.4774 195.493 82.4329 195.523 82.3823 195.55L82.0356 195.732C83.6029 195.803 85.1993 196.287 86.6578 196.73C88.1692 197.189 89.653 197.742 91.1289 198.307L92.5808 198.865C96.1621 200.237 99.8693 201.539 103.745 201.527C104.024 201.527 104.252 201.604 104.432 201.73M99.0174 184.446C100.172 184.305 101.238 184.456 102.16 185.208C103.273 186.114 104.02 187.617 105.62 187.716C106.086 187.745 106.195 188.401 105.731 188.538C104.541 188.89 103.577 188.246 102.765 187.41L102.22 186.84C101.418 186.01 100.679 185.368 99.3187 185.418C97.8619 185.471 96.4026 185.807 94.9553 185.979C93.3157 186.172 91.6765 186.338 90.0318 186.48C89.9554 186.487 89.9424 186.367 90.0139 186.349L91.8561 185.891M97.9029 179.726L98.0933 179.707C99.7699 179.544 101.303 179.538 102.801 180.44L103.088 180.613C104.438 181.434 105.907 182.401 106.752 183.729C106.89 183.947 106.661 184.202 106.43 184.147C104.808 183.758 103.621 182.567 102.257 181.676C100.726 180.676 99.1437 180.841 97.3976 180.997C95.707 181.147 94.0173 181.354 92.3433 181.636C90.7703 181.9 89.1923 182.318 87.6034 182.451L87.6038 182.448C87.4223 182.447 87.3188 182.175 87.5038 182.082C89.1163 181.277 90.9837 180.896 92.7377 180.528M40.4912 134.135C40.4891 134.003 40.6756 133.953 40.7408 134.068C41.8317 135.987 42.4019 138.34 42.9831 140.454C43.5917 142.669 44.0831 144.907 44.5245 147.16C45.4185 151.724 45.8949 156.262 45.9272 160.914C45.9316 161.578 44.8497 161.755 44.7438 161.074C44.0411 156.549 43.3679 152.02 42.6598 147.496C42.3036 145.221 41.889 142.955 41.4922 140.687M51.291 137.478C51.2107 137.213 51.5958 137.125 51.6944 137.367C53.8836 142.741 54.6251 148.831 53.2195 154.501C53.0044 155.368 51.7342 154.992 51.8964 154.136M79.5303 132.703C79.5192 132.505 79.7764 132.474 79.8733 132.61C80.9107 134.072 81.341 136.029 83.161 136.784C84.0697 137.161 85.0922 137.096 85.895 137.733C86.4317 138.159 86.8433 138.831 86.4405 139.477C86.3105 139.685 85.9468 139.789 85.7704 139.563C85.5131 139.233 85.3769 138.838 85.0272 138.59C84.5341 138.241 83.869 138.22 83.3036 138.056C82.5722 137.844 81.9275 137.473 81.3995 136.921M96.8608 108.325C96.9677 108.27 97.0703 108.305 97.1387 108.398C97.2363 108.529 97.2243 108.658 97.1047 108.748C97.2645 109.074 97.4531 109.892 97.4801 110.011C97.5893 110.494 97.7055 110.974 97.8271 111.453C98.0723 112.42 98.2872 113.394 98.5326 114.361C98.7929 115.387 99.1029 116.401 99.4479 117.401C99.4701 117.465 99.4946 117.531 99.5203 117.599L99.5596 117.7L99.5693 117.684C99.6394 117.574 99.7854 117.651 99.7681 117.768C99.752 117.875 99.7304 117.981 99.7122 118.088L99.7484 118.183C99.9741 118.791 100.129 119.431 99.7145 119.967C99.5596 120.167 99.3892 120.286 99.1768 120.321C98.8362 121.444 98.4089 122.545 97.9515 123.603L97.8174 123.912C97.1445 125.456 96.4268 126.98 95.3554 128.294C94.1856 129.729 92.5766 130.709 91.5576 132.282C91.0836 133.013 90.7537 133.782 90.486 134.608L90.3853 134.922C90.1953 135.506 89.976 136.072 89.428 136.415C89.2531 136.524 88.991 136.49 88.85 136.34C87.7261 135.152 88.9027 132.932 89.5804 131.781C90.5224 130.18 91.8859 129.156 93.2511 127.948C94.7227 126.647 95.6613 124.905 96.5693 123.19C97.1255 122.139 97.6623 121.065 98.2276 120.01C97.637 119.488 97.448 118.451 97.2479 117.73L97.2297 117.666C96.899 116.512 96.6362 115.328 96.4702 114.138C96.3105 112.995 96.2439 111.868 96.2861 110.718L96.2983 110.425M99.0565 113.767C98.9261 113.588 99.142 113.386 99.321 113.423C100.409 113.648 101.474 114.307 102.45 114.84L102.555 114.896C103.335 115.317 104.119 115.832 104.529 116.649C104.974 117.537 104.937 118.559 104.877 119.524L104.871 119.615C104.796 120.772 104.784 121.974 104.54 123.11C104.414 123.692 103.888 123.855 103.437 123.718C102.901 125.41 101.396 126.656 100.297 127.991C98.895 129.694 99.1588 131.991 99.3053 134.041C99.3646 134.871 98.3322 135.107 97.8005 134.664L96.5752 133.647C96.3711 133.477 96.1674 133.307 95.9641 133.136C95.79 132.989 95.6175 132.842 95.4465 132.692L95.1909 132.467C95.0776 132.365 94.5777 131.807 94.4315 131.784C94.0774 131.727 93.2362 132.66 92.9483 132.953L92.9119 132.99C92.37 133.521 91.8804 134.093 91.4244 134.699C91.3405 134.81 91.1765 134.718 91.2364 134.589C91.645 133.714 92.1202 132.877 92.6843 132.094L92.7983 131.938C93.1737 131.432 93.6776 130.539 94.3401 130.389C95.1491 130.207 95.9569 131.018 96.5455 131.469L96.5827 131.497C96.8628 131.707 97.1396 131.921 97.4159 132.136C97.387 130.61 97.5798 129.068 98.3678 127.753C98.9234 126.825 99.7558 126.138 100.468 125.341C101.261 124.453 101.675 123.362 102.393 122.438C102.486 122.319 102.613 122.255 102.751 122.235C102.779 121.492 102.888 120.741 102.973 120.006L102.997 119.786C103.083 118.987 103.285 118.012 102.894 117.264C102.524 116.557 101.677 116.058 101.049 115.579L100.537 115.181M63.7319 105.322C63.4042 105.511 63.0979 105.747 62.82 106.042C61.9453 106.97 61.3199 108.124 60.7113 109.235C60.3836 109.834 60.0676 110.438 59.7373 111.035C59.5936 111.295 59.4458 111.552 59.2964 111.808C59.2273 111.926 59.0221 112.161 58.9203 112.306C59.0334 112.464 59.1503 112.62 59.2695 112.775C59.315 112.834 62.4529 116.252 63.5466 117.59C65.2215 119.639 66.7187 121.803 67.9986 124.12C69.2519 126.389 70.2061 128.791 71.3671 131.103C71.9482 132.261 72.5972 133.411 73.4245 134.413C73.4564 134.452 73.4902 134.489 73.5228 134.527C73.8386 133.674 74.6476 132.761 75.0449 132.237L75.0821 132.187C75.9832 130.972 76.9349 129.794 77.9073 128.636C78.7954 127.579 79.7061 126.544 80.6389 125.526L80.9897 125.145C81.6396 124.443 82.4651 123.393 83.4164 122.891C83.3145 122.71 83.1965 122.53 83.0609 122.353C82.1695 121.188 80.9095 120.343 79.6662 119.58L78.86 119.089C75.8207 117.237 72.8289 115.299 70.1904 112.893C68.7944 111.62 67.4178 110.286 66.2444 108.801L65.8295 108.276M68.803 104.405C67.3798 104.524 65.8428 104.496 64.5276 104.96C65.6968 106.065 66.8083 107.258 67.95 108.382C68.0516 107.622 68.2593 106.871 68.4353 106.13" fill="#1F2937"/>
<path fill-rule="evenodd" clip-rule="evenodd" d="M113.07 61.5067C112.646 56.0194 113.303 50.2679 111.187 45.0522C107.498 36.3984 97.1542 33.5131 89.1347 30.2184C85.922 29.2691 75.1115 29.1364 71.3497 27.88C62.836 25.0365 60.8018 21.6484 54.0369 27.0626C52.8949 27.9875 52.1805 28.9928 51.6593 30.3662L51.6807 30.3721C51.5319 30.9447 51.6914 31.516 52.0268 31.9524C49.0936 34.9506 47.8662 39.4455 49.3711 43.4366C54.2825 53.8224 54.0515 59.4381 52.4691 70.6033C50.4026 81.0268 55.1247 84.8344 62.9452 90.5059C62.6268 91.1233 62.5607 91.9438 62.9759 92.4885C72.0192 105.196 89.0703 111.264 103.68 104.814C109.61 102.174 112.257 95.859 113.768 90.1605C115.528 83.7799 116.069 77.0564 114.636 70.5567C114.058 67.5507 113.305 64.5664 113.07 61.5067Z" fill="white"/>
<path fill-rule="evenodd" clip-rule="evenodd" d="M60.9066 0.711531C62.0043 0.5467 62.8333 1.22775 63.2276 2.18767L63.2483 2.23936C63.3751 2.56598 63.5161 2.88368 63.6678 3.19603C66.4146 1.84848 70.3341 2.19473 72.0726 4.92376C73.313 6.8728 72.5563 9.18596 72.0886 11.2528L71.7817 12.6146C72.3751 12.9923 72.8226 13.6685 72.8016 14.3688L72.799 14.4227L72.6741 16.3218C73.0703 15.9202 73.4326 15.4829 73.7557 15.017C73.9788 14.6083 74.2197 14.2067 74.4785 13.8176C76.001 11.5277 79.419 13.5178 78.1625 15.9701C77.9215 16.4431 77.6502 16.8911 77.3593 17.323C77.0309 17.9602 76.7614 18.6153 76.5543 19.2882C77.1487 19.547 77.6056 20.1217 77.6538 20.9891C77.7662 23.0149 76.7025 24.7052 75.0104 25.7671C74.5125 26.0795 73.9984 26.1402 73.5326 26.0241C73.4505 26.1348 73.3684 26.2455 73.2898 26.3579C73.9645 26.9059 74.5731 27.5306 75.0961 28.2231C76.6703 27.9875 78.2535 27.8768 79.8366 27.8732C81.7714 26.9255 84.0881 26.9451 86.1675 27.3003C87.5061 27.5288 88.7912 27.9732 90.1084 28.2927C91.497 28.6282 92.907 28.6407 94.3117 28.8692C96.0823 29.1565 97.6351 29.974 98.6114 31.2787C99.6841 31.3108 100.812 31.7499 101.747 32.3461C103.925 33.7347 106.09 35.1429 108.262 36.5404C109.096 37.077 109.407 37.9335 109.254 38.8889L109.244 38.95L109.171 39.3462L109.342 39.5901C110.007 40.5288 110.73 41.5121 111.161 42.5482C111.957 43.6959 112.676 44.8988 113.313 46.1393C114.172 47.8064 114.88 49.5733 115.36 51.3867C115.48 51.8454 115.6 52.3077 115.678 52.7753C115.79 53.4357 115.617 53.948 115.523 54.5816C115.405 55.3848 115.362 56.1987 115.237 57.0036C115.153 57.5373 114.7 57.7997 114.225 57.814C114.404 59.1722 114.532 60.5394 114.655 61.8959C114.828 63.8342 114.946 65.7779 115.048 67.7216C115.573 68.4837 116.645 69.087 117.42 69.2958C118.493 69.5832 119.617 69.2709 120.631 68.905C121.268 68.6747 121.791 69.4761 121.481 70.0116C120.504 71.6929 118.416 71.6857 116.835 70.9415C116.165 70.6273 115.578 70.1722 115.143 69.5796C115.169 70.1436 115.198 70.7076 115.226 71.2734L115.253 71.7859C115.575 77.7708 116.269 83.9616 115.144 89.8876C113.197 100.152 104.703 107.968 94.326 108.575C88.8808 108.893 84.3463 107.285 82.0915 106.388C79.8366 105.491 80.713 103.661 82.2783 104.184C84.9749 105.085 89.9285 106.427 94.3617 105.848C104.81 104.482 113.67 99.2594 112.76 76.7672C112.631 73.5776 112.233 70.3864 112.148 67.1969C112.066 64.0787 112.096 60.9588 111.958 57.8425L111.913 56.7792C111.859 55.5368 111.802 54.2887 111.709 53.0449C111.596 52.563 111.503 52.0739 111.366 51.6009C110.993 50.314 110.506 49.0629 109.901 47.8688C109.767 47.9706 109.617 48.0437 109.454 48.0723C108.221 48.2936 107.064 48.2311 105.91 47.7171C105.371 47.4797 104.896 47.1638 104.453 46.7729C104.243 46.5891 104.102 46.4106 103.991 46.225C103.432 46.2339 102.874 46.0661 102.524 45.6645C102.125 45.2068 102.058 44.734 102.215 44.2964L102.231 44.2527L102.192 44.2384C101.721 45.4575 100.782 46.5302 99.7519 47.2548C98.1241 48.4043 96.0876 48.7362 94.135 48.7666C91.9789 48.7987 89.705 48.4667 87.5775 48.1276C87.0153 48.0384 86.4566 47.9366 85.9087 47.7992C85.8873 47.8206 85.8658 47.8456 85.8426 47.867C84.0167 49.6144 81.4484 50.0642 79.1316 49.0664C77.793 48.4899 76.6703 47.5618 75.678 46.4981C75.6637 47.0549 75.6351 47.6118 75.5869 48.1633L75.567 48.3823C75.4682 49.4095 75.278 50.4991 74.5018 51.2404C73.247 52.4416 71.4265 51.9597 69.979 51.1779C69.9808 51.2154 69.9808 51.2547 69.9808 51.2939C70.3716 52.6218 70.7643 53.9516 71.157 55.2813L71.2415 55.5645C71.5271 56.5087 71.8402 57.4541 71.9262 58.4422C72.0904 60.3306 70.8339 62.1957 68.7349 61.5621C67.6339 61.231 66.7519 60.3052 65.9056 59.5638L65.3723 59.1026C66.752 63.6129 67.7086 68.2838 67.7979 72.9905C67.8032 73.2457 67.5837 73.4385 67.341 73.4474C66.7734 73.4706 66.163 73.3581 65.5918 73.1315C65.5597 73.1297 65.5276 73.1279 65.4937 73.1225C64.5191 72.9815 63.6142 72.6299 62.8164 72.1105C63.0002 72.6942 63.0823 73.3207 63.0342 73.9757C63.0217 74.1345 62.7736 74.1899 62.7379 74.015C62.2774 71.75 59.6269 70.0383 57.3423 70.472C54.8899 70.9379 53.0837 73.0476 52.641 75.4482C52.1663 78.0273 53.0747 81.0098 54.7578 82.9998C55.5325 83.9173 56.5516 84.683 57.7617 84.8757C58.315 84.9632 58.8898 84.9328 59.427 84.7758C59.6554 84.7079 59.8696 84.6133 60.0874 84.5241C60.4051 84.3956 60.7763 84.376 61.0762 84.2403C61.7562 83.9351 62.4398 84.5616 62.0953 85.2595C61.7955 85.8681 61.526 86.2786 61.028 86.5927C61.4314 87.0854 61.7973 87.7707 61.9329 87.9546C62.6254 88.8898 63.3286 89.7733 64.1175 90.6283C64.9207 91.4957 65.7971 92.2882 66.7234 93.0217L67.1128 93.3294C68.005 94.0371 68.782 94.6928 69.4114 95.7079C69.9076 96.5093 69.265 97.5963 68.3351 97.5838C65.4258 97.5427 63.3108 94.9868 61.8044 92.754C61.5902 92.4345 61.3885 92.0972 61.2011 91.7509C61.1333 91.8598 61.0583 91.9615 60.9744 92.0543L61.1404 92.5006C61.6331 93.8142 59.5109 94.6727 58.8951 93.4465C58.4471 92.5577 57.9277 91.7117 57.3494 90.912C57.0085 90.8639 56.6748 90.6568 56.4891 90.3891C56.0197 89.7091 55.4932 89.0219 55.0488 88.2973C54.8025 88.0634 54.549 87.8386 54.2902 87.619C54.2153 87.6851 54.1385 87.7511 54.0653 87.8207C53.7405 88.5614 53.3389 89.2379 52.8409 89.8751L52.7342 90.011C51.7802 91.2133 50.5376 92.4438 48.9999 92.7379C48.5305 92.8272 48.079 92.2435 48.4948 91.8705C49.5711 90.9031 50.8437 90.2445 51.8361 89.1647C52.325 88.6327 52.7739 88.0468 53.1599 87.4328L53.2479 87.2906C53.3121 87.1853 53.3782 87.08 53.446 86.9729C52.998 86.6677 52.55 86.3607 52.102 86.0537C50.8687 87.1073 49.2627 87.5893 47.8986 88.4621L47.7631 88.5507C46.5297 89.3753 45.2304 87.5512 46.2192 86.5499C47.3092 85.4503 48.2191 84.1389 49.1847 82.9167C48.7306 82.0803 48.5157 81.0913 48.4352 80.0918C48.4035 79.8089 48.3786 79.5258 48.3538 79.2428C47.6613 79.2535 46.9652 79.0161 46.3762 78.6074L46.1531 78.4485C45.4374 78.677 44.686 78.7876 43.9667 78.768C42.2747 78.718 41.5821 76.785 42.6406 75.5624C43.7204 74.313 45.6105 74.0399 47.108 74.6468C47.1562 74.6218 47.2062 74.595 47.2544 74.5683C47.183 74.2398 47.1989 73.942 47.2801 73.6803L47.2565 73.5207C46.9272 73.0154 46.7107 72.4386 46.6286 71.8291C46.5636 71.3463 46.5768 70.8677 46.6886 70.391C46.7257 70.2323 46.803 70.068 46.8621 69.9025C46.7403 69.5952 46.6688 69.2775 46.6466 68.958C46.6125 68.9174 46.5786 68.8759 46.5465 68.8309C45.8035 67.7876 45.9536 66.5306 46.6607 65.6863C46.6639 65.6326 46.6689 65.5789 46.6763 65.5255C46.6349 65.4324 46.5968 65.3383 46.5622 65.2432C45.8713 64.5462 45.364 63.7075 45.4586 62.6682C45.5142 62.0567 45.7655 61.5063 46.1458 61.0948C46.0783 60.8953 46.0719 60.6642 46.1537 60.4712C45.5466 58.8567 45.6234 56.9121 46.0603 55.1063C45.9639 54.8315 45.914 54.5334 45.9247 54.2175C45.9746 52.8771 47.1348 51.6455 48.5091 51.6616C48.6746 51.663 48.8295 51.6846 48.9783 51.7162L48.9803 51.6843C49.033 51.282 49.1436 50.9102 49.3052 50.5766C49.2257 50.5479 49.1522 50.5066 49.0878 50.4518C48.2071 50.9216 47.2753 51.2807 46.2982 51.5254C45.5798 51.7053 44.8439 50.8888 45.2905 50.2145C45.4977 49.9016 45.7264 49.6206 45.9727 49.364C45.6225 49.3659 45.267 49.3897 44.9073 49.4359C44.2612 49.5198 43.5401 49.0789 43.1207 48.4828C42.5995 48.9897 42.0765 49.4948 41.5536 49.9999C40.2292 51.2832 38.2284 50.339 38.0196 48.647C37.6252 48.5417 37.2575 48.3632 36.9344 48.108C34.8462 49.0147 32.599 49.5127 30.302 49.6073C28.6528 49.6751 27.6889 47.7546 28.46 46.3981C28.9776 45.4878 29.6201 44.6704 30.3609 43.96C29.2114 44.3116 28.0245 44.5651 26.8126 44.7275C26.1576 44.815 25.2312 44.2724 24.9688 43.6709C23.9658 41.3577 24.0514 38.9464 25.2062 36.6957C25.2509 36.6065 25.3008 36.5208 25.349 36.4351C25.4686 36.1371 25.5989 35.8426 25.7399 35.5534C24.3192 34.072 24.196 31.8695 24.9617 30.0258C24.6547 29.5278 24.5369 28.9281 24.7457 28.3855C25.3401 26.8238 26.1968 25.3816 27.2784 24.1429C27.1749 23.943 27.0839 23.7306 27.0071 23.5022C26.3985 21.6549 27.1035 19.4256 28.526 18.1387C29.4202 17.3284 30.4483 16.8429 31.546 16.5324C32.0083 15.7149 32.6026 14.9778 33.2951 14.3566C33.3219 14.2977 33.3487 14.2388 33.379 14.1799C34.4571 12.1488 36.4204 11.06 38.5247 10.8084C38.6068 10.0141 39.1423 9.25557 39.9205 9.00926C40.1346 8.32209 40.4541 7.66527 40.8932 7.06914C41.5839 6.13031 42.7316 5.68767 43.8132 6.30344C44.4058 6.64077 44.9733 7.02808 45.5052 7.45645C45.7441 7.34441 46.015 7.27192 46.3205 7.2488L46.3976 7.24405L48.1575 7.15481C48.8946 6.82818 49.63 6.48549 50.3671 6.15173C50.8098 5.78583 51.3042 5.48063 51.8432 5.25395C52.4536 4.99872 53.0783 4.85415 53.7048 4.80596C54.2135 4.63997 54.7257 4.49361 55.2469 4.37938C56.4713 4.11165 57.7528 3.96173 59.0236 3.97422C59.0496 3.6453 59.0625 3.31245 59.06 2.97566L59.0575 2.80694C59.029 1.72711 59.891 0.865028 60.9066 0.711531ZM59.6733 87.1068C59.4984 87.1442 59.3217 87.1746 59.145 87.196C59.1985 87.3281 59.2521 87.4602 59.3038 87.5922C59.4466 87.6726 59.5912 87.7493 59.7358 87.8207C59.6929 87.578 59.6679 87.3334 59.6733 87.1068ZM50.5033 84.3818L50.3847 84.6003C50.3654 84.6361 50.3465 84.6714 50.3279 84.7061C50.5795 84.6865 50.833 84.6919 51.0829 84.7204L51.0821 84.6938C51.05 84.6829 51.0179 84.673 50.9872 84.658C50.8148 84.5751 50.6545 84.4823 50.5033 84.3818ZM55.4593 74.413C57.0384 74.505 58.3762 74.7471 59.8123 75.4379L59.9357 75.4982C61.2047 76.1282 63.3037 77.2919 63.127 78.9608C63.077 79.4355 62.7325 79.9353 62.1899 79.8978C60.7031 79.7961 59.8536 78.2968 58.8469 77.3616C57.8313 76.4192 56.5837 75.45 55.354 74.8021C55.1802 74.7109 55.2486 74.4222 55.4378 74.4129L55.4593 74.413ZM48.2985 52.4255C47.9201 52.438 48.0468 52.8057 48.2414 52.4987C48.2575 52.4737 48.2771 52.4487 48.2985 52.4255ZM68.7235 27.88C65.1399 27.9743 61.5333 30.0902 58.8487 32.229C56.5132 34.0897 54.4965 36.3029 52.7108 38.6883C52.2514 39.8763 51.8569 41.0891 51.5237 42.3108C51.3042 43.1176 51.1667 43.9332 50.9829 44.7471L50.9258 44.9967C50.7814 45.2665 50.6741 45.5569 50.596 45.8569C50.9213 46.1832 51.3434 46.4169 51.8082 46.5277C51.958 46.5634 52.0824 46.6407 52.1807 46.7431C52.5548 46.1188 52.8818 45.4598 53.0721 44.7612L53.079 44.7289C53.7981 43.5511 54.5792 42.4099 55.4165 41.3077C57.726 38.2646 60.2694 35.4909 63.3269 33.1831C65.6454 31.434 68.237 30.0632 70.9928 29.1726C70.3183 28.6284 69.5522 28.1979 68.7235 27.88Z" fill="#1F2937"/>
<path fill-rule="evenodd" clip-rule="evenodd" d="M96.1291 93.3072C94.9293 92.8177 93.8588 92.0012 93.0761 90.9583C92.804 90.5957 92.7334 90.2128 92.7905 89.8626C92.8547 89.4688 93.0877 89.112 93.4054 88.8726C93.724 88.6325 94.1227 88.514 94.5081 88.5744C94.843 88.6269 95.1763 88.8102 95.4402 89.1905L95.4953 89.2666C95.9606 89.8961 96.567 90.4126 97.2578 90.7455C97.9237 91.0663 98.6685 91.2161 99.4392 91.129C100.907 90.9632 101.919 90.1694 102.994 89.0914C103.127 88.9553 103.261 88.8149 103.395 88.6723C103.479 88.543 103.597 88.4599 103.727 88.4163C103.872 88.3679 104.036 88.3707 104.186 88.423C104.331 88.4735 104.46 88.5692 104.547 88.6966C104.629 88.8176 104.676 88.9671 104.661 89.1391C104.562 90.2563 103.978 91.2533 103.148 92.0362C102.227 92.9057 101.006 93.5072 99.8558 93.7181C98.5889 93.9505 97.298 93.784 96.1291 93.3072ZM100.453 76.0729C101.801 76.8921 103.855 78.8024 102.405 80.8335C100.698 82.6243 98.2409 80.571 97.03 79.6424C95.9072 78.9227 94.6457 80.7737 95.6875 81.614C104.437 88.0921 107.988 76.2871 101.135 75.1096C100.381 74.9799 100.1 75.8194 100.453 76.0729ZM84.7734 68.5371C84.9223 66.6887 87.7375 66.2689 88.0175 68.0981C88.2683 69.7365 87.9731 71.2417 87.235 72.7169C86.5298 74.1262 84.7574 73.4687 84.6234 72.1854C84.4437 70.4652 84.6807 69.687 84.7734 68.5371ZM106.203 67.7188C106.595 67.2048 107.162 66.8539 107.841 67.0522C109.962 67.672 109.337 70.6836 108.592 72.1495C108.187 72.9455 106.879 73.1474 106.287 72.4465C105.324 71.3035 104.862 69.0208 106.087 67.895C106.121 67.8368 106.158 67.778 106.203 67.7188ZM87.2052 60.449L87.5402 60.3903C88.5768 60.211 89.8657 60.0388 90.599 60.8721C90.9879 61.3141 91.1218 62.1355 90.599 62.5585C89.6795 63.3027 88.6628 63.0143 87.5609 63.0773C86.6527 63.1294 85.78 63.2797 84.9052 63.5298C82.9861 64.0783 81.4224 65.0795 79.7834 66.179C79.5684 66.3232 79.3488 66.0482 79.4514 65.847C80.3976 63.9938 82.2312 62.4715 84.0678 61.5436C85.048 61.0483 86.1207 60.6374 87.2052 60.449ZM104.269 59.6188L104.526 59.6713C107.317 60.2547 110.943 61.4201 112.264 64.1615C112.315 64.5491 112.262 64.6322 112.218 64.6865L112.204 64.7046C112.168 64.7509 112.14 64.8148 111.972 64.8676C111.925 64.8565 111.878 64.8447 111.83 64.8322C111.225 64.6735 110.745 64.4547 110.281 64.2278L109.778 63.9799C109.194 63.6937 108.605 63.4179 107.981 63.2143C106.65 62.7798 105.28 62.4738 103.888 62.3104C103.587 62.275 103.297 62.1733 103.067 61.9989C102.85 61.8333 102.684 61.6041 102.608 61.2994C102.51 60.9052 102.538 60.6066 102.75 60.2509C102.909 59.9838 103.136 59.7987 103.398 59.6923C103.664 59.584 103.968 59.5584 104.269 59.6188Z" fill="#1F2937"/>
</svg>
