<svg width="511" height="653" viewBox="0 0 511 653" fill="none" xmlns="http://www.w3.org/2000/svg">
<path fill-rule="evenodd" clip-rule="evenodd" d="M498.041 390.736C490.901 391.437 483.761 392.137 476.622 392.838C442.428 395.45 408.247 400.906 374.315 404.181C373.47 402.806 371.816 403.032 370.812 403.988C367.426 403.691 363.632 401.103 360.564 403.795C360.465 403.781 360.365 403.765 360.265 403.755C354.804 393.274 351.029 382.094 347.365 370.9C345.027 364.017 341.881 357.355 336.067 352.734C326.145 345.846 303.411 331.88 291.76 332.467C291.567 330.381 290.594 328.231 288.998 326.842C292.517 320.842 278.446 316.928 277.454 317.623C278.09 297.579 268.661 280.172 247.871 276.181C229.246 272.3 202.755 271.648 192.738 291.112C191.636 290.988 180.381 290.93 179.292 291.052C177.599 288.907 159.004 309.228 166.625 316.303C98.4888 346.444 59.7464 342.847 40.8874 427.582C38.3378 435.542 38.1521 444.252 35.4599 452.035C25.8817 474.4 18.1129 498.216 16.1794 522.552C11.5097 523.748 10.9727 531.982 16.3816 533.173C18.4477 533.628 20.1755 534.25 21.682 535.43C20.5043 555.373 25.3277 600.93 28.3667 600.789C34.5635 620.511 62.2043 626.077 81.773 619.146C78.3996 625.493 81.773 629.483 81.773 632.874C152.187 635.538 229.176 634.004 299.57 637.657C308.575 637.529 318.046 639.869 326.928 638.522C332.344 637.224 332.353 628.707 326.859 627.654L350.865 622.44C350.329 622.238 360.761 615.299 368.645 602.332C375.984 587.827 370.989 570.318 374.315 554.54C400.287 552.416 426.689 551.508 452.377 547.11C455.879 557.589 471.041 545.056 475.86 540.015C475.854 540.007 475.848 539.999 475.842 539.991C478.175 539.353 480.045 537.167 480.108 534.579C481.743 532.242 482.087 528.948 480.518 526.69C487.707 485.206 498.667 442.85 502.629 400.976C504.029 400.666 505.348 400.052 506.466 399.106L506.376 399.015C508.27 396.903 508.638 393.258 505.48 391.463C502.933 390.014 500.805 390.464 498.041 390.736Z" fill="white"/>
<path fill-rule="evenodd" clip-rule="evenodd" d="M194.036 286.592C196.157 281.26 203.329 283.333 202.529 288.934C202.051 292.289 200.213 295.832 198.563 298.773C197.219 301.166 195.686 303.502 193.607 305.296C197.307 308.748 201.148 312.074 205.086 315.232C209.383 318.678 213.901 321.854 218.572 324.773C222.667 327.333 226.948 329.601 230.808 332.522C234.398 335.237 237.668 338.503 239.332 342.767C241.105 347.307 240.334 351.996 239.029 356.533L238.879 357.046C237.545 361.541 235.237 366.959 238.438 371.194C240.067 373.35 242.436 374.877 244.482 376.601C246.3 378.133 248.006 379.799 249.571 381.588C252.984 385.489 255.759 389.879 257.511 394.77L257.668 395.214C259.169 399.544 260.266 404.848 258.237 409.099C257.655 410.317 255.778 409.921 255.452 408.735C254.715 406.047 254.754 403.232 254.136 400.506C253.493 397.671 252.423 394.98 251.025 392.434C248.321 387.508 244.66 383.301 240.333 379.744L239.038 378.691C235.663 375.921 232.562 372.983 231.877 368.399C231.144 363.494 233.109 358.822 234.372 354.18C235.253 350.945 235.54 347.844 234.589 344.921C233.426 346.818 231.84 348.619 230.586 350.226C228.087 353.426 225.565 356.607 223.05 359.794C220.471 363.062 217.955 366.382 215.56 369.787C214.488 371.311 213.428 372.843 212.372 374.377C211.577 375.53 210.469 376.682 209.603 377.858C209.814 378.487 209.798 379.212 209.416 379.727C204.824 385.932 198.29 372.985 196.586 369.714C193.116 363.053 190.534 355.976 187.052 349.316C183.445 342.412 179.337 335.692 174.758 329.389C171.989 325.576 168.885 321.995 166.351 318.062C160.383 323.474 152.529 327.102 145.315 330.392C137.389 334.006 129.154 336.959 121.028 340.094L118.627 341.026C104.625 346.491 90.2801 352.495 78.6414 362.201C64.9649 373.608 56.8739 389.506 50.8504 405.969C43.9164 424.921 38.1799 444.385 32.8324 463.837C30.0959 473.789 27.4994 483.787 25.0584 493.816C22.9074 502.652 21.1244 511.576 18.6344 520.321C23.6844 520.143 29.4439 522.098 33.7554 522.662C53.4049 525.234 72.7899 529.334 91.3414 536.433C93.6329 537.31 94.2959 539.598 93.7969 541.453C95.1184 541.08 96.4389 540.702 97.7604 540.331C96.3126 538.113 97.0036 534.147 97.1174 531.688L97.1244 531.519C97.2414 528.242 97.5969 524.962 97.8274 521.692C98.2663 515.457 98.8377 509.268 99.5975 503.07L99.7914 501.52C100.652 494.776 101.289 487.992 102.228 481.26L102.339 480.489C101.889 478.767 101.364 477.065 100.814 475.371C99.3469 470.859 97.2764 466.611 95.4619 462.241C95.2479 461.726 95.9809 461.431 96.3234 461.739C99.3964 464.504 101.837 468.011 103.798 471.679C103.832 471.506 103.862 471.332 103.898 471.159L104.122 470.058C104.673 467.372 105.345 464.546 106.992 462.367C107.168 462.136 107.515 462.087 107.681 462.367C109.258 465.036 109.434 468.415 109.677 471.452C109.951 474.887 109.986 478.365 109.937 481.81C109.843 488.541 109.368 495.292 108.99 502.012C108.62 508.616 107.891 515.137 106.953 521.676L106.774 522.902C106.316 526.015 105.94 529.166 105.335 532.257L105.164 533.099C104.84 534.632 104.641 536.793 103.997 538.589C120.566 533.967 137.161 529.451 153.787 525.015C165.803 521.808 177.832 518.649 189.856 515.47C190.491 514.326 191.281 513.258 192.267 512.304C195.515 509.158 199.82 507.754 203.769 510.176C204.09 510.373 204.117 510.876 203.769 511.067C203.012 511.48 202.254 511.904 201.51 512.346L208.73 510.391C214.126 508.928 219.587 507.101 225.111 506.081C235.284 501.061 246.226 497.427 256.943 493.835L258.206 493.408C263.694 491.537 269.37 489.443 275.039 488.406C279.189 487.647 284.061 488.563 285.73 492.815C287.843 494.207 289.831 495.844 291.75 497.453C293.137 498.616 294.466 499.853 295.818 501.057L296.068 501.276C297.173 502.235 298.049 502.877 298.32 504.403C298.46 505.192 297.959 506.258 296.986 506.153C294.011 505.835 291.591 502.386 289.573 500.326C288.014 498.734 286.443 497.088 285.02 495.339C284.19 495.79 283.053 495.709 282.525 494.709C279.787 489.525 272.287 493.117 268.137 494.347L262.192 496.106C259.22 496.987 256.248 497.873 253.282 498.774C245.13 501.249 237.018 504.02 228.792 506.293C229.528 507.102 229.427 508.541 228.029 509.089C221.59 511.615 214.526 512.922 207.836 514.655C203.613 515.751 199.392 516.853 195.172 517.961C194.449 519.133 193.928 520.459 193.709 522.003C192.904 527.678 194.457 534.226 195.97 539.715L196.198 540.534C197.441 544.947 199.271 550.357 203.078 553.144C204.008 553.823 205.191 554.296 206.384 554.403C213.838 550.567 221.291 546.731 228.748 542.902C230.13 542.192 231.406 543.153 231.716 544.295C234.346 543.863 236.969 543.183 239.359 542.372C243.374 541.009 246.509 538.408 250.273 536.61C257.556 533.131 264.993 537.404 271.514 540.653L273.017 541.392C275.941 542.811 282.025 545.536 283.428 541.656C284.785 537.902 280.494 533.89 277.723 532.2C274.42 530.186 270.574 529.108 266.841 528.21C264.71 527.697 262.552 527.278 260.382 526.973C257.92 526.626 255.377 526.678 253.006 525.88C251.828 525.484 251.647 523.613 253.006 523.304C256.655 522.473 261.011 523.379 264.819 524.305L266.809 524.795C270.645 525.737 274.519 526.918 278.013 528.796C280.554 530.162 283.236 532.237 284.988 534.777C286.51 533.364 288.403 533.412 290.376 533.936L291.447 534.234C293.215 534.723 294.648 535.061 296.368 534.721C296.598 533.47 296.831 532.218 297.08 530.966C299.532 518.659 302.22 506.399 305.187 494.204C310.304 473.17 316.225 452.367 322.9 431.778L323.57 429.719C325.109 425.01 326.348 419.879 328.83 415.552C331.178 411.461 334.939 409.105 339.407 407.857C344.478 406.441 349.807 405.7 354.98 404.743C356.134 404.53 357.291 404.328 358.446 404.118C357.47 402.356 356.741 400.355 356.085 398.82L355.97 398.554C354.56 395.34 353.294 392.068 352.071 388.778L351.156 386.305C348.948 380.349 346.668 374.492 343.563 368.922C340.295 363.06 335.96 358.267 330.555 354.301C319.536 346.213 306.255 342.087 295.567 333.444C295.129 333.09 295.691 332.484 296.135 332.708C303.352 336.334 311.142 338.8 318.648 341.752L320.129 342.336C326.062 344.688 332.087 347.248 337.222 351.056C342.947 355.302 347.456 360.575 350.845 366.845C354.185 373.026 356.321 379.945 358.678 386.547L359.308 388.306C360.259 390.944 361.24 393.574 362.365 396.141C363.258 398.179 364.925 400.505 365.682 402.833C367.755 402.474 369.827 402.113 371.901 401.767C416.835 394.265 462.27 389.857 507.807 388.567C509.588 388.517 510.51 390.217 510.247 391.771C505.877 417.611 501.994 443.54 497.733 469.4C495.873 480.687 493.976 491.965 492.034 503.237C491.051 508.948 489.914 514.637 488.982 520.357C488.23 524.976 487.684 529.631 486.393 534.143C485.235 538.188 483.458 542.089 480.54 545.176C477.394 548.503 473.003 550.113 468.583 550.874C457.362 552.805 445.853 553.594 434.542 554.88L374.318 561.732C375.198 569.731 375.264 577.606 374.86 585.698L374.63 590.116C374.442 593.669 374.217 597.228 373.707 600.745C373.067 605.156 371.049 608.892 368.076 612.187C365.347 615.213 362.031 617.795 358.805 620.269C355.457 622.838 351.998 625.317 348.061 626.906L347.55 627.109C344.097 628.457 337.619 630.545 332.898 629.782C333.515 632.873 334.709 636.197 333.651 639.256C333.16 640.677 331.302 641.385 330.164 640.177C327.91 637.781 327.734 634.617 327.2 631.492C326.644 628.24 326.165 624.977 325.74 621.705C324.917 615.38 324.276 608.996 324.081 602.617C323.88 596.066 323.957 589.506 324.31 582.962C324.492 579.602 324.717 576.243 325.143 572.904C325.325 571.48 325.511 570.055 325.724 568.635C325.801 568.117 325.887 567.601 325.98 567.087L320.574 567.697C312.286 568.622 303.994 569.457 295.647 569.587C294.658 569.602 293.898 569.152 293.401 568.497C292.871 569.359 291.949 569.976 290.629 569.971C278.972 569.928 268.117 566.116 257.515 561.624C252.171 559.359 246.91 556.907 241.558 554.662C236.563 552.566 231.222 551.07 226.347 548.709L213.537 555.428C213.443 555.759 213.323 556.071 213.195 556.333C212.361 558.035 210.716 558.959 209.037 559.654C207.425 560.323 205.755 560.531 204.129 560.362C194.414 565.453 184.696 570.539 174.973 575.614L165.246 580.684C145.868 590.773 126.567 601.028 107.067 610.881L105.631 611.603C98.8959 614.981 91.6635 618.404 84.1889 620.959C84.0559 622.851 84.1399 624.691 84.2984 626.693L84.3366 627.129C84.5594 629.496 85.0373 632.461 83.1389 634.146C82.1514 635.022 80.3874 635.025 79.7159 633.704C78.4974 631.309 79.5914 627.532 79.9774 624.93C80.1144 624.004 80.2814 623.053 80.5284 622.13C71.9594 624.681 63.1309 625.918 54.4109 624.485C45.9209 623.092 39.3454 617.743 34.0444 611.201C28.4499 604.298 24.4744 596.252 22.3414 587.628C19.9139 577.814 19.7554 567.679 19.8124 557.626C19.8729 546.922 20.2689 536.164 21.5709 525.532C20.1444 525.196 18.5624 524.906 17.1209 525.006C16.4069 526.149 15.0219 526.63 13.7704 526.481C11.0489 529.483 17.9519 532.55 20.1579 533.318C20.9239 533.585 20.8419 534.829 19.9584 534.792L19.4019 534.765C15.9932 534.584 12.4716 534.002 10.4674 530.834C8.8614 528.295 9.3439 525.287 11.2584 523.217C12.5229 511.261 15.5459 499.618 18.3594 487.955C21.1204 476.508 24.1909 465.134 27.4454 453.817L28.9044 448.752C34.0286 431.008 39.3846 413.12 46.4529 396.081C49.9824 387.573 54.0484 379.222 59.5599 371.803C64.6974 364.888 70.7629 358.97 77.7349 353.916C90.7324 344.493 105.984 338.8 120.969 333.375L121.639 333.133C129.405 330.324 137.151 327.481 144.828 324.438C151.618 321.746 158.122 318.334 164.88 315.602C164.66 315.203 164.448 314.8 164.244 314.393L164.119 314.498C164.098 314.515 164.076 314.531 164.053 314.547C163.374 315.018 162.373 314.786 161.813 314.258C160.232 312.766 160.768 311.109 161.823 309.562L161.96 309.365C163.251 307.557 164.403 305.645 165.594 303.771L166.341 302.599C168.341 299.468 170.442 296.316 173.109 293.729C174.344 292.53 175.696 291.633 177.128 290.964C177.006 290.705 178.08 290.176 178.384 290.442C182.923 288.781 188.144 289.129 193.092 289.587M371.404 562.063L365.094 562.78C358.152 563.57 351.208 564.334 344.262 565.09L329.176 566.73C329.137 567.59 329.033 568.431 329.014 569.08C328.915 572.429 328.842 575.779 328.772 579.128C328.633 585.842 328.786 592.563 329.228 599.264C329.656 605.757 330.221 612.251 331.097 618.7L331.277 619.989L331.381 620.667C332.096 620.736 332.799 621.076 333.384 621.775C334.66 623.298 339.28 621.817 341.085 621.175C344.052 620.119 346.847 618.335 349.425 616.546C351.944 614.799 354.211 612.762 356.39 610.617L358.173 608.854C359.946 607.091 361.721 605.214 362.808 602.997C364.281 599.991 364.472 596.301 364.904 593.027C365.436 589 366.069 584.974 366.739 580.967M188.227 519.792L187.572 519.964C163.797 526.281 140.057 532.785 116.208 538.824C104.406 541.813 92.5484 544.584 80.7319 547.516L78.8188 547.994C69.4968 550.35 60.063 553.186 52.9244 559.947C52.6609 560.196 52.2784 559.814 52.5264 559.549C60.2199 551.359 71.1619 547.892 81.6679 544.887C83.6099 544.331 85.5544 543.789 87.4969 543.236C73.2089 538.143 58.6954 533.711 43.8469 530.551C40.0234 529.737 36.1554 529.139 32.3349 528.322C29.6705 527.752 27.0684 526.928 24.4321 526.244L22.3584 525.723L22.3309 532.277C22.2964 541.559 22.3128 550.834 22.7864 560.115L22.876 561.835C23.4286 572.163 24.291 582.706 27.9564 592.445C30.9349 600.359 35.6824 607.815 41.8909 613.579C45.0324 616.496 48.4099 618.766 52.5849 619.887C56.4614 620.928 60.5229 621.05 64.5079 620.772C83.6224 619.439 100.637 609.055 117.241 600.458C144.4 586.397 171.561 572.342 198.747 558.335C198.012 557.832 197.32 557.253 196.691 556.603C193.045 552.838 191.122 547.684 189.859 542.692C188.515 537.379 187.711 531.685 187.617 526.2M222.818 563.763C223.058 563.634 223.336 563.795 223.347 564.066C223.431 566.143 222.284 568.191 221.427 570.061L221.336 570.261C220.294 572.578 219.154 574.864 217.974 577.114C215.617 581.609 213.167 586.057 210.61 590.441C205.468 599.262 199.754 607.711 193 615.391C191.474 617.126 188.965 614.901 189.944 613.033C194.664 604.028 200.167 595.526 205.831 587.097C208.666 582.877 211.5 578.653 214.363 574.452C215.558 572.699 216.768 570.953 218.01 569.233L218.76 568.204M504.796 393.725C480.937 394.445 457.107 396.001 433.362 398.44C411.279 400.707 389.277 403.726 367.399 407.489C362.829 408.275 358.265 409.093 353.707 409.943L350.973 410.457C346.414 411.321 340.844 411.678 336.785 414.113C332.506 416.681 331.349 422.047 329.925 426.472C328.251 431.676 326.62 436.895 325.032 442.126C318.728 462.898 312.97 483.849 307.833 504.939C305.283 515.408 303.02 525.935 300.636 536.441C298.518 545.776 296.181 555.006 293.74 564.247C294.041 564.013 294.41 563.835 294.855 563.74C306.979 561.161 319.355 560.04 331.66 558.615L332.851 558.476C345.58 556.979 358.31 555.493 371.047 554.061L455.376 544.577C460.35 544.018 465.678 543.942 470.518 542.608C478.747 540.338 480.676 531.138 482.056 523.811L482.098 523.59C486.26 501.453 489.574 479.124 493.456 456.932M295.702 538.514C292.428 538.298 287.947 535.3 285.463 535.515C286.767 537.703 287.356 540.198 286.604 542.863C284.513 550.279 275.054 546.442 270.498 544.177C266.763 542.318 263.156 540.044 259.02 539.174C254.335 538.189 251.161 540.052 247.203 542.199C243.952 543.963 240.412 545.229 236.771 545.885C234.835 546.234 232.996 546.271 231.16 546.135C231.05 546.225 230.925 546.308 230.783 546.383L229.812 546.892C234.203 547.093 238.675 548.448 242.761 549.689C246.995 550.974 251.151 552.523 255.286 554.107L259.353 555.67C269.386 559.512 279.771 563.16 290.629 563.128C291.409 563.126 292.049 563.342 292.552 563.695M277.385 515.277C280.619 514.882 283.605 515.306 286.189 517.411C289.306 519.95 291.4 524.161 295.881 524.438C297.188 524.518 297.491 526.355 296.193 526.739C292.857 527.727 290.157 525.922 287.884 523.579L286.356 521.983C284.11 519.658 282.039 517.86 278.229 517.999C274.148 518.148 270.06 519.091 266.005 519.57C261.412 520.113 256.82 520.576 252.213 520.976C251.999 520.994 251.962 520.657 252.163 520.608L257.323 519.323M274.262 502.054L274.796 502.001C279.493 501.545 283.788 501.527 287.983 504.054L288.787 504.54C292.569 506.839 296.686 509.547 299.051 513.269C299.438 513.878 298.798 514.595 298.151 514.44C293.605 513.349 290.282 510.014 286.46 507.518C282.17 504.717 277.738 505.179 272.847 505.614C268.111 506.035 263.377 506.614 258.688 507.404C254.281 508.145 249.861 509.315 245.41 509.688L245.411 509.679C244.902 509.678 244.612 508.914 245.131 508.655C249.648 506.4 254.879 505.332 259.793 504.302M113.431 374.338C113.425 373.966 113.948 373.827 114.13 374.149C117.186 379.525 118.784 386.116 120.412 392.039C122.117 398.244 123.493 404.512 124.73 410.826C127.234 423.612 128.569 436.324 128.659 449.355C128.672 451.215 125.641 451.71 125.344 449.804C123.376 437.128 121.49 424.44 119.506 411.768C118.508 405.394 117.347 399.045 116.235 392.691M143.685 383.702C143.46 382.961 144.539 382.713 144.815 383.391C150.948 398.445 153.025 415.506 149.088 431.389C148.485 433.818 144.927 432.766 145.381 430.367M222.794 370.325C222.763 369.77 223.483 369.683 223.755 370.065C226.661 374.159 227.866 379.643 232.965 381.759C235.51 382.815 238.375 382.631 240.624 384.416C242.127 385.609 243.28 387.493 242.152 389.301C241.788 389.885 240.769 390.177 240.275 389.543C239.554 388.618 239.172 387.511 238.193 386.818C236.811 385.841 234.948 385.78 233.364 385.321C231.315 384.727 229.509 383.687 228.03 382.143M271.343 302.033C271.643 301.881 271.93 301.978 272.122 302.237C272.395 302.606 272.362 302.965 272.027 303.218C272.474 304.133 273.003 306.424 273.078 306.757C273.384 308.109 273.71 309.453 274.05 310.796C274.737 313.505 275.339 316.234 276.027 318.944C276.756 321.816 277.624 324.657 278.591 327.458C278.653 327.639 278.721 327.824 278.793 328.012L278.904 328.296L278.931 328.253C279.127 327.942 279.536 328.159 279.488 328.487C279.443 328.786 279.382 329.084 279.331 329.383L279.432 329.651C280.065 331.352 280.497 333.144 279.338 334.646C278.904 335.207 278.426 335.54 277.831 335.639C276.877 338.784 275.68 341.87 274.399 344.834L274.023 345.7C272.138 350.025 270.127 354.293 267.126 357.975C263.849 361.995 259.342 364.74 256.487 369.145C255.159 371.194 254.235 373.349 253.485 375.663L253.203 376.541C252.671 378.178 252.056 379.764 250.521 380.724C250.031 381.03 249.297 380.933 248.902 380.515C245.754 377.185 249.05 370.966 250.948 367.741C253.587 363.257 257.407 360.389 261.231 357.006C265.354 353.359 267.983 348.481 270.527 343.676C272.085 340.732 273.589 337.724 275.172 334.767C273.518 333.305 272.988 330.401 272.428 328.382L272.377 328.201C271.45 324.968 270.714 321.651 270.249 318.319C269.802 315.116 269.615 311.959 269.733 308.738L269.767 307.917M277.494 317.279C277.129 316.778 277.734 316.211 278.235 316.315C281.284 316.946 284.265 318.791 287.002 320.284L287.294 320.442C289.479 321.62 291.677 323.063 292.824 325.352C294.071 327.839 293.968 330.704 293.798 333.407L293.782 333.66C293.574 336.901 293.54 340.269 292.854 343.452C292.503 345.081 291.028 345.54 289.766 345.155C288.265 349.895 284.049 353.387 280.969 357.127C277.042 361.895 277.781 368.332 278.191 374.075C278.357 376.4 275.465 377.061 273.976 375.82L270.543 372.969C269.971 372.493 269.401 372.017 268.831 371.538C268.344 371.128 267.86 370.714 267.381 370.295L266.665 369.663C266.348 369.379 264.947 367.815 264.538 367.75C263.546 367.592 261.189 370.206 260.383 371.026L260.281 371.128C258.763 372.617 257.391 374.218 256.114 375.917C255.879 376.229 255.419 375.97 255.587 375.609C256.732 373.157 258.063 370.813 259.643 368.619L259.963 368.182C261.014 366.765 262.426 364.263 264.282 363.844C266.548 363.334 268.811 365.606 270.46 366.868L270.564 366.947C271.349 367.535 272.124 368.134 272.898 368.737C272.817 364.462 273.357 360.142 275.565 356.457C277.121 353.859 279.453 351.934 281.449 349.701C283.67 347.215 284.83 344.159 286.841 341.569C287.1 341.236 287.457 341.057 287.844 341C287.921 338.918 288.228 336.816 288.465 334.756L288.533 334.14C288.773 331.902 289.339 329.169 288.243 327.074C287.208 325.095 284.834 323.697 283.076 322.355L281.64 321.241M178.537 293.62C177.619 294.151 176.761 294.812 175.982 295.637C173.532 298.237 171.78 301.472 170.075 304.584C169.157 306.26 168.272 307.954 167.346 309.626C166.944 310.354 166.53 311.073 166.111 311.792C165.918 312.123 165.343 312.781 165.058 313.186C165.375 313.63 165.702 314.067 166.036 314.499C166.163 314.664 174.954 324.24 178.018 327.987C182.71 333.728 186.904 339.791 190.489 346.281C194 352.637 196.673 359.366 199.926 365.844C201.554 369.088 203.372 372.308 205.689 375.115C205.779 375.225 205.873 375.328 205.965 375.436C206.849 373.047 209.116 370.488 210.229 369.019L210.333 368.881C212.857 365.478 215.523 362.177 218.247 358.933C220.735 355.97 223.287 353.071 225.9 350.221L226.882 349.154C228.703 347.187 231.015 344.245 233.68 342.84C233.395 342.331 233.064 341.827 232.684 341.33C230.187 338.067 226.658 335.699 223.175 333.563L220.916 332.189C212.402 327 204.021 321.572 196.629 314.83C192.719 311.263 188.862 307.527 185.575 303.366L184.413 301.895M192.743 291.052C188.756 291.386 184.45 291.307 180.766 292.606C184.041 295.702 187.155 299.046 190.353 302.194C190.638 300.065 191.22 297.961 191.713 295.885" fill="#1F2937"/>
<path fill-rule="evenodd" clip-rule="evenodd" d="M316.751 170.878C315.563 155.506 317.404 139.394 311.477 124.783C301.143 100.541 272.165 92.4578 249.699 83.2283C240.699 80.569 210.415 80.1973 199.877 76.6776C176.027 68.7117 170.328 59.2204 151.377 74.3878C148.178 76.9788 146.177 79.7948 144.717 83.6423L144.777 83.6588C144.36 85.2628 144.807 86.8633 145.746 88.0858C137.529 96.4848 134.091 109.077 138.307 120.257C152.065 149.352 151.418 165.083 146.985 196.361C141.196 225.561 154.425 236.228 176.333 252.116C175.441 253.845 175.256 256.144 176.419 257.67C201.752 293.269 249.519 310.267 290.445 292.198C307.058 284.804 314.474 267.112 318.707 251.148C323.637 233.274 325.152 214.439 321.138 196.231C319.519 187.81 317.41 179.45 316.751 170.878Z" fill="white"/>
<path fill-rule="evenodd" clip-rule="evenodd" d="M170.622 0.568604C173.697 0.106849 176.019 2.01471 177.124 4.70381L177.182 4.8486C177.537 5.7636 177.932 6.6536 178.357 7.5286C186.052 3.7536 197.032 4.7236 201.902 12.3686C205.377 17.8286 203.257 24.3086 201.947 30.0986L201.087 33.9136C202.749 34.9715 204.003 36.8659 203.944 38.8276L203.937 38.9786L203.587 44.2986C204.697 43.1736 205.712 41.9486 206.617 40.6436C207.242 39.4986 207.917 38.3736 208.642 37.2836C212.907 30.8686 222.482 36.4436 218.962 43.3136C218.287 44.6386 217.527 45.8936 216.712 47.1036C215.792 48.8886 215.037 50.7236 214.457 52.6086C216.122 53.3336 217.402 54.9436 217.537 57.3736C217.852 63.0486 214.872 67.7836 210.132 70.7586C208.737 71.6336 207.297 71.8036 205.992 71.4786C205.762 71.7886 205.532 72.0986 205.312 72.4136C207.202 73.9486 208.907 75.6986 210.372 77.6386C214.782 76.9786 219.217 76.6686 223.652 76.6586C229.072 74.0036 235.562 74.0586 241.387 75.0536C245.137 75.6936 248.737 76.9386 252.427 77.8336C256.317 78.7736 260.267 78.8086 264.202 79.4486C269.162 80.2536 273.512 82.5436 276.247 86.1986C279.252 86.2886 282.412 87.5186 285.032 89.1886C291.132 93.0786 297.197 97.0236 303.282 100.939C305.617 102.442 306.491 104.841 306.061 107.517L306.032 107.689L305.827 108.799L306.308 109.482C308.171 112.112 310.197 114.866 311.402 117.769C313.632 120.984 315.647 124.354 317.432 127.829C319.837 132.499 321.822 137.449 323.167 142.529C323.502 143.814 323.837 145.109 324.057 146.419C324.372 148.269 323.887 149.704 323.622 151.479C323.292 153.729 323.172 156.009 322.822 158.264C322.587 159.759 321.317 160.494 319.987 160.534C320.487 164.339 320.847 168.169 321.192 171.969C321.677 177.399 322.007 182.844 322.292 188.289C323.762 190.424 326.767 192.114 328.937 192.699C331.942 193.504 335.092 192.629 337.932 191.604C339.717 190.959 341.182 193.204 340.312 194.704C337.577 199.414 331.727 199.394 327.297 197.309C325.422 196.429 323.777 195.154 322.557 193.494C322.632 195.074 322.712 196.654 322.792 198.239L322.867 199.674C323.767 216.44 325.712 233.783 322.562 250.384C317.107 279.139 293.311 301.033 264.242 302.734C248.988 303.626 236.285 299.12 229.969 296.607C223.652 294.094 226.107 288.969 230.492 290.434C238.046 292.957 251.923 296.717 264.342 295.094C293.612 291.267 318.432 276.638 315.882 213.629C315.52 204.693 314.407 195.754 314.167 186.819C313.937 178.084 314.022 169.344 313.637 160.614L313.509 157.635C313.358 154.155 313.198 150.658 312.937 147.174C312.622 145.824 312.362 144.454 311.977 143.129C310.932 139.524 309.567 136.019 307.872 132.674C307.497 132.959 307.077 133.164 306.622 133.244C303.167 133.864 299.927 133.689 296.692 132.249C295.182 131.584 293.852 130.699 292.612 129.604C292.022 129.089 291.627 128.589 291.317 128.069C289.752 128.094 288.187 127.624 287.207 126.499C286.089 125.216 285.903 123.892 286.341 122.666L286.387 122.544L286.277 122.504C284.957 125.919 282.327 128.924 279.442 130.954C274.882 134.174 269.177 135.104 263.707 135.189C257.667 135.279 251.297 134.349 245.337 133.399C243.762 133.149 242.197 132.864 240.662 132.479C240.602 132.539 240.542 132.609 240.477 132.669C235.362 137.564 228.167 138.824 221.677 136.029C217.927 134.414 214.782 131.814 212.002 128.834C211.962 130.394 211.882 131.954 211.747 133.499L211.691 134.112C211.414 136.99 210.882 140.042 208.707 142.119C205.192 145.484 200.092 144.134 196.037 141.944C196.042 142.049 196.042 142.159 196.042 142.269C197.137 145.989 198.237 149.714 199.337 153.439L199.574 154.232C200.374 156.877 201.251 159.525 201.492 162.294C201.952 167.584 198.432 172.809 192.552 171.034C189.468 170.106 186.997 167.513 184.626 165.435L183.132 164.144C186.997 176.779 189.677 189.864 189.927 203.049C189.942 203.764 189.327 204.304 188.647 204.329C187.057 204.394 185.347 204.079 183.747 203.444C183.657 203.439 183.567 203.434 183.472 203.419C180.742 203.024 178.207 202.039 175.972 200.584C176.487 202.219 176.717 203.974 176.582 205.809C176.547 206.254 175.852 206.409 175.752 205.919C174.462 199.574 167.037 194.779 160.637 195.994C153.767 197.299 148.707 203.209 147.467 209.934C146.137 217.159 148.682 225.514 153.397 231.089C155.567 233.659 158.422 235.804 161.812 236.344C163.362 236.589 164.972 236.504 166.477 236.064C167.117 235.874 167.717 235.609 168.327 235.359C169.217 234.999 170.257 234.944 171.097 234.564C173.002 233.709 174.917 235.464 173.952 237.419C173.112 239.124 172.357 240.274 170.962 241.154C172.092 242.534 173.117 244.454 173.497 244.969C175.437 247.589 177.407 250.064 179.617 252.459C181.867 254.889 184.322 257.109 186.917 259.164L188.008 260.025C190.507 262.008 192.684 263.845 194.447 266.689C195.837 268.934 194.037 271.979 191.432 271.944C183.282 271.829 177.357 264.669 173.137 258.414C172.537 257.519 171.972 256.574 171.447 255.604C171.257 255.909 171.047 256.194 170.812 256.454L171.277 257.704C172.657 261.384 166.712 263.789 164.987 260.354C163.732 257.864 162.277 255.494 160.657 253.254C159.702 253.119 158.767 252.539 158.247 251.789C156.932 249.884 155.457 247.959 154.212 245.929C153.522 245.274 152.812 244.644 152.087 244.029C151.877 244.214 151.662 244.399 151.457 244.594C150.547 246.669 149.422 248.564 148.027 250.349L147.728 250.729C145.056 254.098 141.575 257.545 137.267 258.369C135.952 258.619 134.687 256.984 135.852 255.939C138.867 253.229 142.432 251.384 145.212 248.359C146.582 246.868 147.839 245.227 148.921 243.507L149.167 243.109C149.347 242.814 149.532 242.519 149.722 242.219C148.467 241.364 147.212 240.504 145.957 239.644C142.502 242.595 138.003 243.945 134.182 246.39L133.802 246.639C130.347 248.949 126.707 243.839 129.477 241.034C132.531 237.953 135.08 234.28 137.785 230.856C136.513 228.513 135.911 225.742 135.685 222.942C135.596 222.15 135.527 221.357 135.457 220.564C133.517 220.594 131.567 219.929 129.917 218.784L129.292 218.339C127.287 218.979 125.182 219.289 123.167 219.234C118.427 219.094 116.487 213.679 119.452 210.254C122.477 206.754 127.772 205.989 131.967 207.689C132.102 207.619 132.242 207.544 132.377 207.469C132.177 206.549 132.222 205.714 132.449 204.981L132.383 204.534C131.461 203.119 130.854 201.503 130.624 199.795C130.442 198.443 130.479 197.102 130.792 195.767C130.896 195.322 131.113 194.862 131.278 194.398C130.937 193.537 130.737 192.647 130.675 191.752C130.579 191.639 130.484 191.522 130.394 191.396C128.313 188.474 128.733 184.952 130.714 182.587C130.723 182.437 130.737 182.286 130.758 182.137C130.642 181.876 130.535 181.612 130.438 181.346C128.503 179.393 127.082 177.044 127.347 174.132C127.502 172.419 128.206 170.877 129.272 169.725C129.083 169.166 129.065 168.518 129.294 167.978C127.593 163.455 127.808 158.007 129.032 152.949C128.762 152.179 128.622 151.344 128.652 150.459C128.792 146.704 132.042 143.254 135.892 143.299C136.356 143.303 136.79 143.363 137.207 143.452L137.212 143.362C137.36 142.235 137.67 141.194 138.122 140.259C137.9 140.179 137.694 140.063 137.513 139.91C135.046 141.226 132.436 142.232 129.699 142.917C127.686 143.421 125.625 141.134 126.876 139.245C127.456 138.368 128.097 137.581 128.787 136.862C127.806 136.868 126.81 136.934 125.802 137.064C123.992 137.299 121.972 136.064 120.797 134.394C119.337 135.814 117.872 137.229 116.407 138.644C112.697 142.239 107.092 139.594 106.507 134.854C105.402 134.559 104.372 134.059 103.467 133.344C97.6171 135.884 91.3221 137.279 84.8871 137.544C80.2671 137.734 77.5671 132.354 79.7271 128.554C81.1771 126.004 82.9771 123.714 85.0521 121.724C81.8321 122.709 78.5071 123.419 75.1121 123.874C73.2771 124.119 70.6821 122.599 69.9471 120.914C67.1371 114.434 67.3771 107.679 70.6121 101.374C70.7371 101.124 70.8771 100.884 71.0121 100.644C71.3471 99.8086 71.7121 98.9836 72.1071 98.1736C68.1271 94.0236 67.7821 87.8536 69.9271 82.6886C69.0671 81.2936 68.7371 79.6136 69.3221 78.0936C70.9871 73.7186 73.3871 69.6786 76.4171 66.2086C76.1271 65.6486 75.8721 65.0536 75.6571 64.4136C73.9521 59.2386 75.9271 52.9936 79.9121 49.3886C82.4171 47.1186 85.2971 45.7586 88.3721 44.8886C89.6671 42.5986 91.3321 40.5336 93.2721 38.7936C93.3471 38.6286 93.4221 38.4636 93.5071 38.2986C96.5271 32.6086 102.027 29.5586 107.922 28.8536C108.152 26.6286 109.652 24.5036 111.832 23.8136C112.432 21.8886 113.327 20.0486 114.557 18.3786C116.492 15.7486 119.707 14.5086 122.737 16.2336C124.397 17.1786 125.987 18.2636 127.477 19.4636C128.146 19.1498 128.905 18.9467 129.761 18.8819L129.977 18.8686L134.907 18.6186C136.972 17.7036 139.032 16.7436 141.097 15.8086C142.337 14.7836 143.722 13.9286 145.232 13.2936C146.942 12.5786 148.692 12.1736 150.447 12.0386C151.872 11.5736 153.307 11.1636 154.767 10.8436C158.197 10.0936 161.787 9.6736 165.347 9.7086C165.42 8.78718 165.456 7.85473 165.449 6.91126L165.442 6.4386C165.362 3.4136 167.777 0.998604 170.622 0.568604ZM167.167 242.594C166.677 242.699 166.182 242.784 165.687 242.844C165.837 243.214 165.987 243.584 166.132 243.954C166.532 244.179 166.937 244.394 167.342 244.594C167.222 243.914 167.152 243.229 167.167 242.594ZM141.479 234.96L141.146 235.572C141.092 235.672 141.039 235.771 140.987 235.869C141.692 235.814 142.402 235.829 143.102 235.909L143.1 235.834C143.01 235.804 142.92 235.776 142.834 235.734C142.351 235.502 141.902 235.242 141.479 234.96ZM155.362 207.034C159.786 207.291 163.533 207.97 167.557 209.905L167.902 210.074C171.457 211.839 177.337 215.099 176.842 219.774C176.702 221.104 175.737 222.504 174.217 222.399C170.052 222.114 167.672 217.914 164.852 215.294C162.007 212.654 158.512 209.939 155.067 208.124C154.58 207.868 154.772 207.059 155.302 207.033L155.362 207.034ZM135.302 145.439C134.242 145.474 134.597 146.504 135.142 145.644C135.187 145.574 135.242 145.504 135.302 145.439ZM192.52 76.6776C182.481 76.9416 172.378 82.8691 164.857 88.8606C158.315 94.0731 152.665 100.273 147.663 106.956C146.376 110.284 145.271 113.681 144.337 117.104C143.722 119.364 143.337 121.649 142.822 123.929L142.662 124.628C142.258 125.384 141.957 126.197 141.738 127.038C142.65 127.952 143.832 128.606 145.134 128.917C145.554 129.017 145.902 129.233 146.178 129.52C147.226 127.771 148.142 125.925 148.675 123.968L148.694 123.878C150.709 120.578 152.897 117.381 155.242 114.294C161.712 105.769 168.837 97.9986 177.402 91.5336C183.897 86.6336 191.157 82.7936 198.877 80.2986C196.988 78.7741 194.842 77.5681 192.52 76.6776Z" fill="#1F2937"/>
<path fill-rule="evenodd" clip-rule="evenodd" d="M277.521 262.079C273.838 263.146 269.884 263.242 266.129 262.14C262.724 261.14 259.227 258.941 256.721 256.031C254.495 253.446 253.053 250.304 253.109 246.95C253.116 246.567 253.253 246.248 253.463 246C253.69 245.732 254.007 245.549 254.346 245.469C254.695 245.388 255.064 245.417 255.378 245.559C255.663 245.688 255.906 245.908 256.059 246.229C256.444 246.735 256.828 247.233 257.213 247.718C260.31 251.542 263.309 254.4 267.966 255.425C270.493 255.981 273.016 255.734 275.332 254.886C277.81 253.977 280.051 252.38 281.807 250.336C282.6 249.412 283.537 249.035 284.453 249.029C285.491 249.021 286.517 249.504 287.29 250.275C288.049 251.032 288.558 252.062 288.604 253.139C288.645 254.085 288.336 255.072 287.516 255.953C284.813 258.856 281.311 260.982 277.521 262.079ZM277.407 214.184C281.183 216.479 286.936 221.83 282.874 227.52C278.093 232.537 271.209 226.784 267.817 224.183C264.672 222.167 261.138 227.352 264.056 229.706C288.568 247.854 298.515 214.784 279.317 211.485C277.203 211.122 276.418 213.474 277.407 214.184ZM242.087 204.085C240.874 203.309 239.446 203.043 237.864 203.762C236.628 204.325 234.46 206.199 232.951 208.663C231.918 210.348 231.186 212.326 231.338 214.385C231.374 214.864 231.197 215.217 230.918 215.477C230.698 215.683 230.38 215.835 230.006 215.882C229.689 215.922 229.334 215.886 229.046 215.796C228.497 215.624 228.206 215.268 228.096 214.977C227.04 212.171 227.495 209.04 228.679 206.215C230.277 202.402 233.18 199.209 235.081 198.179C238.335 196.417 242.173 196.336 245.432 198.131C248.206 199.659 249.94 202.127 251.665 204.642C252.032 205.176 252.396 205.707 252.772 206.228C253.526 207.273 253.601 208.309 253.309 209.198C252.985 210.182 252.161 211.013 251.13 211.447C250.177 211.849 249.07 211.906 248.092 211.493C247.265 211.144 246.506 210.464 246.026 209.311C245.217 207.368 243.87 205.225 242.087 204.085V204.085ZM303.72 208.407C302.889 208.84 302.239 208.971 301.317 208.695C300.807 208.541 300.303 208.248 299.909 207.853C299.518 207.462 299.236 206.976 299.126 206.437C298.857 205.106 298.128 203.86 297.09 203.047C296.203 202.353 295.083 201.985 293.841 202.193C292.501 202.416 291.224 203.276 290.345 204.289C290.051 204.628 289.821 205.014 289.589 205.396C289.156 206.111 288.734 206.776 288.137 207.302C287.91 207.502 287.569 207.64 287.238 207.64C287.104 207.64 286.968 207.618 286.838 207.578C285.504 206.239 285.247 205.223 285.29 204.216C285.335 203.159 285.752 202.09 286.425 201.092C288.004 198.751 291.001 196.831 293.024 196.397C295.794 195.801 298.546 196.516 300.751 198.063C303.021 199.655 304.703 202.127 305.227 204.913C305.353 205.583 305.3 206.308 305.044 206.935C304.794 207.549 304.359 208.074 303.72 208.407ZM248.197 179.126C246.535 180.746 244.567 180.997 242.576 181.22C241.47 181.345 240.587 181.446 239.718 181.642C237.33 182.181 234.97 182.993 232.816 184.163C230.565 185.385 228.111 186.859 226.346 188.748C225.926 189.197 225.531 189.669 225.135 190.141C224.773 190.572 224.425 190.987 224.058 191.387C223.637 191.847 223.237 192.328 222.839 192.808C222.593 193.214 222.545 193.313 222.495 193.417C222.421 193.573 222.334 193.748 222.235 193.935C222.099 194.191 221.94 194.472 221.774 194.726C221.497 195.191 221.348 195.319 221.22 195.377C221.007 195.472 220.805 195.518 220.609 195.493C220.425 195.469 220.252 195.381 220.081 195.237C219.228 194.515 218.976 193.332 219.002 192.076C219.041 190.169 219.744 188.059 220.392 186.761C221.899 183.746 223.99 180.612 226.503 178.362C229.371 175.793 232.509 173.849 236.113 172.509C238.352 171.676 240.946 170.912 243.386 171.008C245.142 171.078 246.819 171.6 248.203 172.904C249.054 173.704 249.462 174.842 249.462 175.98C249.462 177.14 249.038 178.307 248.197 179.126ZM307.101 193.959C306.996 194.132 306.849 194.251 306.687 194.323C306.516 194.398 306.325 194.42 306.142 194.389C305.96 194.359 305.787 194.276 305.65 194.15C305.519 194.029 305.418 193.869 305.374 193.672C304.27 188.825 302.127 185.218 297.552 182.892C295.302 181.748 292.714 181.021 290.265 180.441C289.553 180.273 288.801 180.163 288.043 180.053C285.669 179.706 283.278 179.309 281.731 177.39C280.798 176.235 280.407 174.756 280.628 173.404C280.837 172.132 281.58 170.964 282.932 170.265C286.299 168.524 290.482 170.232 293.881 171.687C294.133 171.795 294.381 171.901 294.623 172.003C297.948 173.406 300.979 175.259 303.472 177.908C305.449 180.009 307.282 183.116 308.019 186.311C308.633 188.97 308.489 191.685 307.101 193.959Z" fill="#1F2937"/>
</svg>
