<svg width="20" height="20" viewBox="0 0 20 20" fill="none" xmlns="http://www.w3.org/2000/svg">
<path d="M3.68874 17.0006L2.28436 1.25H17.7156L16.3094 16.9981L9.99061 18.75L3.68874 17.0006Z" fill="#E44F26"/>
<path d="M10 17.4112L15.1062 15.9956L16.3075 2.53809H10V17.4112Z" fill="#F1662A"/>
<path d="M10 8.37936H7.44375L7.2675 6.40124H10V4.46936H5.15625L5.2025 4.98811L5.67688 10.3112H10V8.37936ZM10 13.3962L9.99125 13.3987L7.84 12.8181L7.7025 11.2775H5.76312L6.03375 14.31L9.99125 15.4087L10 15.4062V13.3962Z" fill="#EBEBEB"/>
<path d="M9.9931 8.37936V10.3112H12.3719L12.1481 12.8169L9.9931 13.3981V15.4081L13.9537 14.31L13.9825 13.9837L14.4362 8.89811L14.4837 8.37936H9.9931ZM9.9931 4.46936V6.40124H14.6594L14.6981 5.96749L14.7862 4.98811L14.8325 4.46936H9.9931Z" fill="white"/>
</svg>
