<svg width="27" height="20" viewBox="0 0 27 20" fill="none" xmlns="http://www.w3.org/2000/svg">
<g clip-path="url(#clip0_15_283)">
<path d="M22.9476 11.5118C22.0199 11.5166 21.2136 11.74 20.5385 12.0704C20.2907 11.5797 20.0429 11.1426 19.9993 10.822C19.9507 10.4481 19.8924 10.2197 19.9507 9.77286C20.009 9.32598 20.2713 8.68963 20.2664 8.64108C20.2616 8.59254 20.208 8.36421 19.6738 8.35942C19.1395 8.35452 18.678 8.4614 18.6246 8.60223C18.5712 8.74306 18.4692 9.06369 18.4012 9.3939C18.3089 9.87973 17.3326 11.6137 16.7741 12.522C16.5943 12.1675 16.4389 11.8566 16.4048 11.6089C16.3563 11.2349 16.2979 11.0066 16.3563 10.5597C16.4146 10.1129 16.6769 9.47661 16.672 9.42796C16.6671 9.37942 16.6137 9.15108 16.0794 9.14629C15.545 9.1414 15.0836 9.24827 15.0302 9.38911C14.9768 9.53004 14.9185 9.86025 14.8068 10.1809C14.695 10.5015 13.3982 13.3965 13.0582 14.1444C12.9208 14.4471 12.7766 14.7468 12.6259 15.0431C12.6259 15.0431 12.621 15.0576 12.6064 15.0819C12.559 15.1748 12.5105 15.2671 12.4608 15.3588V15.3636C12.3878 15.4948 12.3101 15.6162 12.2713 15.6162C12.2421 15.6162 12.1887 15.2665 12.281 14.7905C12.4752 13.785 12.9367 12.221 12.9319 12.1675C12.9319 12.1384 13.0193 11.8664 12.6308 11.7255C12.2518 11.5846 12.1159 11.8178 12.0818 11.8178C12.0478 11.8178 12.0235 11.9004 12.0235 11.9004C12.0235 11.9004 12.4462 10.142 11.2172 10.142C10.4498 10.142 9.39086 10.9823 8.86628 11.74C8.26994 12.0646 7.6741 12.39 7.07878 12.7164C6.79232 12.8767 6.49597 13.037 6.21909 13.1875C6.19961 13.1682 6.18024 13.1438 6.16076 13.1244C4.6744 11.5361 1.92524 10.414 2.0418 8.28171C2.08555 7.50452 2.35263 5.46442 7.3217 2.98723C11.4115 0.971398 14.666 1.52994 15.2294 2.76858C16.0357 4.53671 13.4857 7.82025 9.25972 8.29619C7.64711 8.47598 6.8019 7.85421 6.58826 7.62109C6.36482 7.37817 6.33076 7.36358 6.24815 7.41223C6.11222 7.48515 6.19961 7.70369 6.24815 7.82994C6.37451 8.16015 6.8942 8.74306 7.77336 9.02973C8.55055 9.28223 10.44 9.42317 12.7278 8.53911C15.2876 7.54817 17.2889 4.79411 16.7012 2.48692C16.1134 0.145669 12.2275 -0.626623 8.55055 0.679939C6.36482 1.45723 3.9944 2.68119 2.28951 4.27442C0.263987 6.16869 -0.0566379 7.81536 0.074508 8.50515C0.545758 10.9532 3.92159 12.5464 5.2719 13.7267C5.20388 13.7656 5.14065 13.7996 5.08732 13.8288C4.41211 14.1639 1.83774 15.5093 1.19659 16.9325C0.46805 18.5451 1.31326 19.7013 1.8718 19.8566C3.60586 20.3375 5.38847 19.473 6.34534 18.0448C7.30222 16.6168 7.18565 14.7613 6.74367 13.9113C6.73878 13.9016 6.73399 13.8918 6.7242 13.8821C6.89909 13.7801 7.07878 13.6733 7.25367 13.5713C7.57512 13.3813 7.90065 13.1982 8.23003 13.0223C8.06482 13.4741 7.94336 14.0133 7.88513 14.7905C7.81222 15.7037 8.18617 16.8888 8.6768 17.355C8.89544 17.5592 9.15284 17.564 9.31805 17.564C9.89117 17.564 10.1487 17.088 10.4352 16.5245C10.7849 15.8348 11.1007 15.0334 11.1007 15.0334C11.1007 15.0334 10.7072 17.1997 11.7759 17.1997C12.1644 17.1997 12.5578 16.6945 12.7327 16.4371V16.4419C12.7327 16.4419 12.7424 16.4273 12.7619 16.3934C12.8008 16.3302 12.825 16.2913 12.825 16.2913V16.2817C12.9804 16.0096 13.3302 15.3928 13.8499 14.3679C14.5202 13.0467 15.1663 11.3953 15.1663 11.3953C15.1663 11.3953 15.2246 11.7984 15.4237 12.4687C15.5403 12.8621 15.783 13.2944 15.9774 13.7121C15.822 13.9308 15.7248 14.0521 15.7248 14.0521L15.7297 14.057C15.6034 14.2221 15.4674 14.4018 15.3168 14.5768C14.7873 15.2082 14.156 15.932 14.0685 16.1408C13.9664 16.3885 13.9908 16.5683 14.1851 16.714C14.326 16.8209 14.5785 16.8354 14.836 16.8209C15.312 16.7868 15.6471 16.6702 15.8122 16.5974C16.0697 16.5051 16.3709 16.3642 16.6525 16.1554C17.1723 15.7716 17.4879 15.2227 17.4589 14.4991C17.4443 14.1008 17.3132 13.7024 17.1528 13.3284C17.2015 13.2605 17.2451 13.1924 17.2938 13.1244C18.1146 11.9246 18.751 10.6083 18.751 10.6083C18.751 10.6083 18.8093 11.0114 19.0084 11.6818C19.1056 12.0218 19.3047 12.391 19.4795 12.7504C18.7072 13.377 18.2312 14.1056 18.0612 14.5816C17.7552 15.4657 17.9932 15.8639 18.4449 15.9562C18.6489 15.9999 18.9403 15.9028 19.1541 15.8105C19.4261 15.7231 19.7467 15.5725 20.0527 15.349C20.5725 14.9654 21.0727 14.431 21.0436 13.7073C21.029 13.377 20.9416 13.0515 20.8201 12.7358C21.4759 12.4639 22.3211 12.3133 23.3993 12.4395C25.7115 12.7115 26.168 14.1541 26.0805 14.7614C25.9932 15.3685 25.5074 15.6988 25.3472 15.8008C25.1868 15.9029 25.1335 15.9368 25.148 16.0096C25.1674 16.1165 25.2451 16.1117 25.3812 16.0922C25.5707 16.0583 26.5955 15.6016 26.6392 14.4844C26.7121 13.0564 25.352 11.4972 22.9476 11.5118ZM5.11159 17.5251C4.34409 18.3606 3.27555 18.6763 2.81409 18.4092C2.31867 18.1225 2.51295 16.8888 3.45524 16.0048C4.02836 15.4657 4.7667 14.9653 5.25732 14.6593C5.36899 14.5913 5.5342 14.4942 5.73336 14.3728C5.76732 14.3533 5.7868 14.3436 5.7868 14.3436L5.90336 14.2707C6.24815 15.5336 5.91795 16.646 5.11159 17.5251ZM10.6975 13.7267C10.4303 14.3776 9.8718 16.0437 9.5318 15.9514C9.24034 15.8737 9.06055 14.6108 9.47347 13.3624C9.68232 12.7358 10.1243 11.9878 10.3818 11.6964C10.7995 11.23 11.261 11.0745 11.3726 11.2641C11.5136 11.5118 10.8626 13.3187 10.6975 13.7267ZM15.3071 15.9319C15.1953 15.9903 15.0886 16.0291 15.0399 15.9999C15.006 15.9805 15.0886 15.9028 15.0886 15.9028C15.0886 15.9028 15.6666 15.2811 15.8948 14.9993C16.0261 14.8342 16.1814 14.6399 16.3466 14.4213V14.4844C16.3466 15.2276 15.6276 15.728 15.307 15.9319H15.3071ZM18.8626 15.1208C18.78 15.0624 18.7946 14.8682 19.0715 14.261C19.1784 14.023 19.4309 13.6247 19.8633 13.241C19.9118 13.3964 19.9459 13.547 19.941 13.6879C19.9361 14.6254 19.2659 14.975 18.8626 15.1208Z" fill="#CD6799"/>
</g>
<defs>
<clipPath id="clip0_15_283">
<rect width="26.67" height="20" fill="white"/>
</clipPath>
</defs>
</svg>
