<svg width="25" height="16" viewBox="0 0 25 16" fill="none" xmlns="http://www.w3.org/2000/svg">
<path d="M12.5 0.458862C9.16667 0.458862 7.08333 2.10059 6.25 5.38405C7.5 3.74232 8.95833 3.12667 10.625 3.5371C11.576 3.77105 12.2552 4.45032 13.0083 5.20346C14.2344 6.4286 15.6521 7.84664 18.75 7.84664C22.0833 7.84664 24.1667 6.20491 25 2.92146C23.75 4.56318 22.2917 5.17883 20.625 4.7684C19.674 4.53445 18.9948 3.85519 18.2417 3.10205C17.0167 1.87691 15.599 0.458862 12.5 0.458862ZM6.25 7.84664C2.91667 7.84664 0.833333 9.48837 0 12.7718C1.25 11.1301 2.70833 10.5145 4.375 10.9249C5.32604 11.1588 6.00521 11.8381 6.75833 12.5912C7.98438 13.8164 9.40208 15.2344 12.5 15.2344C15.8333 15.2344 17.9167 13.5927 18.75 10.3092C17.5 11.951 16.0417 12.5666 14.375 12.1562C13.424 11.9222 12.7448 11.243 11.9917 10.4898C10.7667 9.26469 9.34896 7.84664 6.25 7.84664Z" fill="#38BDF8"/>
</svg>
