<svg width="20" height="20" viewBox="0 0 20 20" fill="none" xmlns="http://www.w3.org/2000/svg">
<path d="M18.6775 3.84119L10.4638 18.5287C10.4252 18.5978 10.3689 18.6554 10.3008 18.6955C10.2326 18.7357 10.155 18.7571 10.0759 18.7574C9.9968 18.7577 9.91903 18.737 9.85056 18.6973C9.78208 18.6577 9.72538 18.6006 9.68626 18.5318L1.31001 3.84244C1.26789 3.76874 1.24768 3.68455 1.25173 3.59976C1.25578 3.51497 1.28393 3.43309 1.33288 3.36374C1.38183 3.29438 1.44954 3.24043 1.52808 3.20821C1.60661 3.17598 1.6927 3.16683 1.77626 3.18181L9.99876 4.65181C10.051 4.66123 10.1046 4.66123 10.1569 4.65181L18.2075 3.18431C18.2907 3.16911 18.3766 3.17787 18.455 3.20959C18.5335 3.24131 18.6013 3.29467 18.6505 3.36346C18.6998 3.43225 18.7285 3.51362 18.7333 3.5981C18.738 3.68257 18.7187 3.76666 18.6775 3.84056V3.84119Z" fill="url(#paint0_linear_18_377)"/>
<path d="M13.915 1.25437L7.83753 2.445C7.78888 2.4545 7.74478 2.47993 7.71218 2.51727C7.67959 2.55462 7.66036 2.60176 7.65753 2.65125L7.28378 8.96625C7.28172 9.00089 7.28776 9.03554 7.30144 9.06744C7.31512 9.09933 7.33604 9.1276 7.36256 9.14999C7.38908 9.17238 7.42045 9.18828 7.45419 9.19642C7.48793 9.20455 7.5231 9.20471 7.55691 9.19687L9.24878 8.80625C9.28523 8.79783 9.32321 8.7987 9.35923 8.8088C9.39525 8.8189 9.42816 8.83789 9.45492 8.86403C9.48168 8.89017 9.50144 8.92261 9.51238 8.95839C9.52332 8.99416 9.52509 9.03211 9.51753 9.06875L9.01503 11.5306C9.00728 11.5685 9.00951 11.6078 9.02151 11.6446C9.03351 11.6813 9.05487 11.7144 9.08348 11.7404C9.1121 11.7664 9.14699 11.7846 9.18474 11.793C9.22248 11.8015 9.26178 11.8 9.29878 11.7887L10.3438 11.4712C10.3808 11.4599 10.4202 11.4584 10.458 11.4669C10.4958 11.4754 10.5308 11.4936 10.5594 11.5197C10.5881 11.5458 10.6094 11.579 10.6213 11.6158C10.6333 11.6527 10.6354 11.6921 10.6275 11.73L9.82816 15.5969C9.77816 15.8387 10.1 15.9706 10.2344 15.7637L10.3238 15.625L15.2769 5.74062C15.2955 5.70338 15.3033 5.66168 15.2994 5.62023C15.2956 5.57878 15.2802 5.53925 15.255 5.50608C15.2299 5.47292 15.1959 5.44746 15.157 5.43258C15.1182 5.4177 15.0759 5.41399 15.035 5.42187L13.2932 5.7575C13.2557 5.76467 13.217 5.76211 13.1807 5.75005C13.1445 5.73799 13.112 5.71684 13.0863 5.68862C13.0606 5.6604 13.0425 5.62606 13.0339 5.58888C13.0252 5.55169 13.0263 5.51291 13.0369 5.47625L14.1732 1.535C14.1839 1.49821 14.1849 1.45929 14.1762 1.42198C14.1675 1.38467 14.1494 1.35022 14.1235 1.32197C14.0976 1.29371 14.0649 1.27259 14.0285 1.26064C13.9921 1.24869 13.9532 1.24632 13.9157 1.25375L13.915 1.25437Z" fill="url(#paint1_linear_18_377)"/>
<defs>
<linearGradient id="paint0_linear_18_377" x1="1.10533" y1="2.65673" x2="11.3273" y2="16.539" gradientUnits="userSpaceOnUse">
<stop stop-color="#41D1FF"/>
<stop offset="1" stop-color="#BD34FE"/>
</linearGradient>
<linearGradient id="paint1_linear_18_377" x1="9.52626" y1="1.57736" x2="11.3754" y2="14.262" gradientUnits="userSpaceOnUse">
<stop stop-color="#FFEA83"/>
<stop offset="0.083" stop-color="#FFDD35"/>
<stop offset="1" stop-color="#FFA800"/>
</linearGradient>
</defs>
</svg>
