<svg width="24" height="24" viewBox="0 0 24 24" fill="none" xmlns="http://www.w3.org/2000/svg">
<path d="M12 0C5.3745 0 0 5.3745 0 12C0 18.6255 5.3745 24 12 24C18.6255 24 24 18.6255 24 12C24 5.3745 18.6255 0 12 0Z" fill="#368FB9"/>
<path d="M19.0609 16.3181C18.3197 16.4942 17.9444 16.6564 17.027 17.254C15.5954 18.1807 14.0293 18.6115 14.0293 18.6115C14.0293 18.6115 13.8996 18.8062 13.5243 18.8942C12.8757 19.0517 10.434 19.1861 10.2116 19.1907C9.61385 19.1954 9.24785 19.0379 9.14594 18.7923C8.83554 18.051 9.59069 17.7266 9.59069 17.7266C9.59069 17.7266 9.42391 17.6247 9.3266 17.532C9.23857 17.444 9.14594 17.268 9.1181 17.3328C9.00232 17.6154 8.94204 18.3058 8.63163 18.6162C8.20535 19.0471 7.39919 18.9035 6.92201 18.6532C6.39841 18.3753 6.95904 17.722 6.95904 17.722C6.95904 17.722 6.67638 17.8888 6.44941 17.546C6.24551 17.231 6.05566 16.6934 6.10657 16.031C6.16216 15.2757 7.00535 14.5436 7.00535 14.5436C7.00535 14.5436 6.85713 13.4271 7.3436 12.2827C7.78376 11.2402 8.96988 10.4016 8.96988 10.4016C8.96988 10.4016 7.97369 9.29887 8.34438 8.30737C8.58532 7.65862 8.68263 7.66331 8.76138 7.63556C9.03935 7.52896 9.30804 7.41309 9.50735 7.1954C10.5034 6.12046 11.7729 6.32428 11.7729 6.32428C11.7729 6.32428 12.3753 4.49428 12.9313 4.851C13.1027 4.96218 13.7189 6.33356 13.7189 6.33356C13.7189 6.33356 14.3768 5.949 14.451 6.09262C14.8494 6.86643 14.8957 8.3444 14.7197 9.24328C14.4231 10.7258 13.6818 11.5228 13.3853 12.0232C13.3158 12.139 14.1822 12.505 14.7289 14.02C15.234 15.4054 14.7845 16.5683 14.8633 16.6981C14.8772 16.7212 14.8819 16.7305 14.8819 16.7305C14.8819 16.7305 15.4609 16.7768 16.6239 16.0587C17.2447 15.6742 17.9814 15.2433 18.82 15.234C19.6309 15.22 19.6726 16.1699 19.0609 16.3181ZM20.1637 15.637C20.0803 14.9792 19.5244 14.5252 18.8108 14.5343C17.7452 14.5482 16.851 15.0997 16.2579 15.4657C16.0263 15.6093 15.827 15.7159 15.6556 15.7946C15.6926 15.2572 15.6603 14.5529 15.3822 13.7792C15.0439 12.8525 14.59 12.2827 14.2656 11.9537C14.6409 11.4069 15.1552 10.6101 15.3961 9.37762C15.6046 8.32584 15.5398 6.69037 15.0625 5.77293C14.9652 5.58768 14.8031 5.45325 14.5992 5.39765C14.5158 5.3745 14.3583 5.32818 14.0478 5.41621C13.5799 4.44787 13.4178 4.34596 13.2926 4.26253C13.0332 4.09575 12.7274 4.05872 12.4401 4.16522C12.0556 4.30425 11.7267 4.67493 11.4162 5.33278C11.3715 5.42564 11.3298 5.5199 11.2911 5.61543C10.7027 5.65715 9.77604 5.87025 8.99304 6.71812C8.89573 6.82472 8.70579 6.90347 8.50647 6.97762H8.51116C8.10344 7.12125 7.9181 7.45481 7.69113 8.05715C7.37604 8.90034 7.70032 9.72965 8.02001 10.2672C7.58454 10.6564 7.00535 11.2772 6.69963 12.0046C6.31966 12.9035 6.27794 13.7838 6.29182 14.261C5.96754 14.6039 5.46719 15.2479 5.41151 15.9707C5.33744 16.9807 5.70344 17.6664 5.86563 17.9166C5.91194 17.9907 5.96294 18.051 6.01844 18.1112C5.99997 18.2362 5.99538 18.3707 6.02313 18.5096C6.08341 18.834 6.28722 19.0981 6.59763 19.2649C7.20926 19.5892 8.06173 19.7282 8.71966 19.3992C8.95591 19.6494 9.38688 19.8904 10.1699 19.8904H10.2162C10.4154 19.8904 12.9452 19.756 13.6819 19.5754C14.0108 19.4965 14.2378 19.3575 14.3861 19.2324C14.8586 19.0841 16.1652 18.6394 17.3976 17.8425C18.2687 17.2772 18.5699 17.1567 19.2185 16.9992C19.8485 16.8464 20.2425 16.2718 20.1637 15.637Z" fill="white"/>
</svg>
